<?xml version="1.0" encoding="UTF-8" standalone="no"?>
<!-- Created with Inkscape (http://www.inkscape.org/) -->

<svg
   width="400mm"
   height="184.81302mm"
   viewBox="0 0 400.00003 184.81302"
   version="1.1"
   id="svg5"
   xml:space="preserve"
   inkscape:version="1.2.2 (732a01da63, 2022-12-09)"
   sodipodi:docname="Aufbau.svg"
   inkscape:export-filename="..\04_Software\UI\imgs\Baumer.svg"
   inkscape:export-xdpi="96"
   inkscape:export-ydpi="96"
   xmlns:inkscape="http://www.inkscape.org/namespaces/inkscape"
   xmlns:sodipodi="http://sodipodi.sourceforge.net/DTD/sodipodi-0.dtd"
   xmlns="http://www.w3.org/2000/svg"
   xmlns:svg="http://www.w3.org/2000/svg"><style
     id="style1425">
.measure-arrow
{
}
.measure-label
{

}
.measure-line
{
}</style><sodipodi:namedview
     id="namedview7"
     pagecolor="#ffffff"
     bordercolor="#000000"
     borderopacity="0.25"
     inkscape:showpageshadow="2"
     inkscape:pageopacity="0.0"
     inkscape:pagecheckerboard="0"
     inkscape:deskcolor="#d1d1d1"
     inkscape:document-units="mm"
     showgrid="false"
     inkscape:zoom="0.14270963"
     inkscape:cx="1674.7293"
     inkscape:cy="-367.87986"
     inkscape:window-width="2400"
     inkscape:window-height="1411"
     inkscape:window-x="2391"
     inkscape:window-y="-9"
     inkscape:window-maximized="1"
     inkscape:current-layer="svg5"
     inkscape:lockguides="true" /><defs
     id="defs2" /><rect
     style="font-variation-settings:'wdth' 75, 'wght' 512;fill:#ffffff;fill-opacity:1;stroke:none;stroke-width:2.3795;stroke-linecap:square;stroke-linejoin:bevel;stroke-dasharray:none;stroke-dashoffset:0;stroke-opacity:1"
     id="rect573821-9"
     width="400"
     height="184.813"
     x="1.1368684e-13"
     y="0"
     ry="26.882967" /><style
     id="style1425-6">
.measure-arrow
{
}
.measure-label
{

}
.measure-line
{
}</style><style
     type="text/css"
     id="style245342">
	.st0{fill:#FFFFFF;}
	.st1{fill:none;}
	.st2{fill:#0062AE;}
	.st3{clip-path:url(#SVGID_00000002358357376170049520000004298317418494047119_);fill:#0062AE;}
	.st4{clip-path:url(#SVGID_00000127028224577092881960000007483239004178551740_);fill:#0062AE;}
	.st5{clip-path:url(#SVGID_00000134212148993211780580000001433661709248891067_);fill:#999999;}
</style><style
     type="text/css"
     id="style288922">
	.st0{fill:#E30613;}
</style><style
     type="text/css"
     id="style317668">
	.st0{fill:#FFFFFF;}
	.st1{fill:#00A587;}
</style><style
     type="text/css"
     id="style325384">
	.st0{fill:#003C62;}
</style><g
     id="g630192"
     transform="matrix(0.70689934,0,0,0.70689934,-10.786073,-185.25119)">
	<path
   fill="#d51130"
   stroke="#d51130"
   stroke-width="0.168"
   d="m 50.708,308.257 h 54.879 v 14.762 h -35.89 v 17.988 h 35.891 v 15.832 H 69.697 v 21.145 h 35.891 v 14.763 h -54.88 z m 83.402,0 v 62.342 c 0,11.608 26.454,11.608 26.454,0 v -62.342 h 18.988 v 65.496 c 0,10.528 -10.534,22.134 -31.679,22.134 -20.06,0 -32.751,-11.605 -32.751,-22.134 v -65.496 z m 100.323,55.962 h 19.068 v 9.534 c 0,10.528 -7.38,22.134 -29.594,22.134 -23.214,0 -32.748,-11.605 -32.748,-22.134 v -46.505 c 0,-10.542 9.534,-22.147 31.666,-22.147 23.296,0 30.676,11.605 30.676,22.147 v 7.377 h -19.068 v -4.237 c 0,-11.608 -25.288,-11.608 -25.288,0 v 40.21 c 0,11.608 25.288,11.608 25.288,0 z m 29.602,-55.962 h 18.979 v 32.75 h 24.297 v -32.75 h 19.07 v 84.487 h -19.07 v -35.905 h -24.297 v 35.905 h -18.979 z m 73.954,0 h 18.99 l 26.445,50.656 v -50.656 h 20.062 v 84.487 h -20.062 l -26.445,-47.51 v 47.513 h -18.99 z m 76.021,0 h 54.973 v 14.762 H 433.08 v 17.988 h 35.902 v 15.832 H 433.08 v 21.145 h 35.902 v 14.763 H 414.01 Z m 63.427,0 h 35.905 c 16.913,0 28.519,7.38 28.519,23.214 0,20.06 -19.067,25.368 -19.067,25.368 l 22.211,35.905 h -20.062 l -20.057,-35.905 h -7.38 v 35.905 h -20.071 v -84.487 z m 20.068,14.762 v 17.988 h 15.837 c 8.445,0 9.451,-4.226 9.451,-9.537 0,-5.308 -1.003,-8.452 -9.451,-8.452 h -15.837 z"
   id="path630156" />
	<g
   id="g630190">
		<g
   id="g630188">
			<path
   fill="#d51130"
   d="m 194.924,470.986 h -4.104 v -38.948 h 6.809 l 8.509,32.088 h 0.149 l 8.36,-32.088 h 6.958 v 38.948 H 217.5 v -35.295 h -0.102 l -9.509,35.295 h -3.356 l -9.512,-35.295 h -0.097 z"
   id="path630158" />
			<path
   fill="#d51130"
   d="m 227.001,457.168 c 0,-10.362 4.905,-14.618 11.064,-14.618 6.156,0 11.061,4.256 11.061,14.618 0,10.36 -4.905,14.616 -11.061,14.616 -6.159,0 -11.064,-4.256 -11.064,-14.616 z m 18.22,0 c 0,-4.706 -1.148,-11.315 -7.156,-11.315 -6.008,0 -7.159,6.609 -7.159,11.315 0,4.704 1.152,11.313 7.159,11.313 6.007,0 7.156,-6.609 7.156,-11.313 z"
   id="path630160" />
			<path
   fill="#d51130"
   d="m 258.431,449.31 h 0.102 c 1.552,-3.303 3.555,-6.357 7.659,-6.357 h 1.502 v 3.555 c -5.104,-0.702 -7.761,4.806 -9.258,8.811 v 15.668 h -3.905 V 443.35 h 3.905 v 5.96 z"
   id="path630162" />
			<path
   fill="#d51130"
   d="m 274.147,457.82 c 0,7.91 3.353,10.664 7.357,10.664 2.903,0 5.358,-2.354 6.759,-4.757 l 2.8,1.851 c -1.5,3.555 -5.206,6.206 -9.959,6.206 -6.156,0 -11.064,-4.256 -11.064,-14.616 0,-10.362 4.905,-14.618 11.064,-14.618 7.957,0 10.261,8.509 9.711,15.268 h -16.668 z m 12.564,-3.304 c 0.099,-3.554 -1.801,-8.661 -5.908,-8.661 -4.405,0 -6.507,4.759 -6.557,8.661 z"
   id="path630164" />
			<path
   fill="#d51130"
   d="m 316.282,443.35 h 6.261 v 3.304 h -6.261 v 17.372 c 0,2.701 -0.05,4.455 3.154,4.455 1.104,0 2.151,-0.1 3.104,-0.351 v 2.855 c -1.248,0.447 -2.552,0.798 -3.904,0.798 -6.607,0 -6.256,-4.452 -6.256,-9.509 v -15.619 h -4.204 v -3.303 h 4.204 v -8.96 h 3.902 z"
   id="path630166" />
			<path
   fill="#d51130"
   d="m 329.843,446.203 c 2.304,-1.848 4.455,-3.653 7.609,-3.653 3.905,0 7.06,2.154 7.06,9.362 v 19.074 h -3.905 v -18.074 c 0,-2.899 0.502,-7.158 -3.654,-7.158 -2.405,0 -5.557,2.353 -7.112,4.206 v 21.026 h -3.902 v -38.948 h 3.902 v 14.165 z"
   id="path630168" />
			<path
   fill="#d51130"
   d="m 365.933,470.986 -0.403,-3.505 c -2.253,2.201 -4.756,4.303 -8.009,4.303 -4.254,0 -7.659,-3.555 -7.659,-7.91 0,-7.91 8.311,-9.608 14.42,-11.26 l 1.248,-0.351 v -1.556 c 0,-3.148 -2.154,-4.855 -5.253,-4.855 -3.055,0 -5.156,2.003 -6.761,4.355 l -2.754,-2.052 c 2.301,-3.303 5.306,-5.606 9.512,-5.606 3.751,0 9.159,2.304 9.159,8.608 v 13.722 c 0.052,2.052 -0.05,4.153 0.754,6.106 h -4.254 z m -1.952,-15.069 c -3.704,1.103 -10.462,2.604 -10.462,7.56 0,2.301 1.803,4.607 4.156,4.607 3.104,0 5.955,-2.154 7.857,-4.505 v -8.112 z"
   id="path630170" />
			<path
   fill="#d51130"
   d="m 379.439,470.986 h -3.905 V 443.35 h 3.905 v 2.853 c 2.304,-1.848 4.458,-3.653 7.609,-3.653 3.905,0 7.06,2.154 7.06,9.362 v 19.074 h -3.905 v -18.074 c 0,-2.899 0.5,-7.158 -3.654,-7.158 -2.406,0 -5.56,2.353 -7.112,4.206 v 21.026 z"
   id="path630172" />
			<path
   fill="#d51130"
   d="m 429.941,449.507 c -1.553,-2.298 -3.403,-3.654 -6.306,-3.654 -2.552,0 -4.958,1.301 -4.958,4.107 0,6.756 14.569,3.803 14.569,13.113 0,5.408 -3.855,8.711 -9.062,8.711 -4.455,0 -8.06,-1.949 -10.311,-5.806 l 3.104,-1.952 c 1.503,2.855 3.905,4.455 7.208,4.455 2.854,0 5.408,-1.553 5.408,-4.706 0,-6.958 -14.569,-3.654 -14.569,-13.567 0,-4.756 3.905,-7.658 8.46,-7.658 3.855,0 7.06,1.602 9.214,4.806 z"
   id="path630174" />
			<path
   fill="#d51130"
   d="m 453.963,470.986 -0.403,-3.505 c -2.251,2.201 -4.756,4.303 -8.009,4.303 -4.257,0 -7.659,-3.555 -7.659,-7.91 0,-7.91 8.311,-9.608 14.42,-11.26 l 1.248,-0.351 v -1.556 c 0,-3.148 -2.151,-4.855 -5.253,-4.855 -3.055,0 -5.156,2.003 -6.761,4.355 l -2.754,-2.052 c 2.301,-3.303 5.309,-5.606 9.512,-5.606 3.754,0 9.159,2.304 9.159,8.608 v 13.722 c 0.052,2.052 -0.053,4.153 0.751,6.106 h -4.251 z m -1.952,-15.069 c -3.704,1.103 -10.463,2.604 -10.463,7.56 0,2.301 1.807,4.607 4.16,4.607 3.102,0 5.952,-2.154 7.854,-4.505 v -8.112 z"
   id="path630176" />
			<path
   fill="#d51130"
   d="m 474.178,446.654 h -5.106 v 24.332 h -3.903 v -24.332 h -4.206 v -3.304 h 4.206 v -5.007 c 0,-4.704 2.651,-7.109 7.309,-7.109 l 2.052,0.301 v 3.353 c -0.6,-0.198 -1.248,-0.351 -1.903,-0.351 -2.952,0 -3.554,1.503 -3.554,3.754 v 5.057 h 5.106 v 3.306 z"
   id="path630178" />
			<path
   fill="#d51130"
   d="m 481.334,457.82 c 0,7.91 3.353,10.664 7.357,10.664 2.905,0 5.36,-2.354 6.761,-4.757 l 2.804,1.851 c -1.503,3.555 -5.209,6.206 -9.96,6.206 -6.158,0 -11.063,-4.256 -11.063,-14.616 0,-10.362 4.905,-14.618 11.063,-14.618 7.958,0 10.261,8.509 9.714,15.268 h -16.676 z m 12.567,-3.304 c 0.097,-3.554 -1.807,-8.661 -5.913,-8.661 -4.402,0 -6.507,4.759 -6.555,8.661 z"
   id="path630180" />
			<path
   fill="#d51130"
   d="m 509.058,443.35 h 6.256 v 3.304 h -6.256 v 17.372 c 0,2.701 -0.053,4.455 3.151,4.455 1.104,0 2.154,-0.1 3.104,-0.351 v 2.855 c -1.248,0.447 -2.549,0.798 -3.905,0.798 -6.606,0 -6.256,-4.452 -6.256,-9.509 v -15.619 h -4.206 v -3.303 h 4.206 v -8.96 h 3.905 v 8.958 z"
   id="path630182" />
			<path
   fill="#d51130"
   d="m 528.977,472.088 c -1.497,4.756 -3.952,8.46 -9.46,8.46 -1.102,0 -1.955,-0.201 -3.002,-0.552 l 0.603,-3.304 c 0.698,0.201 1.45,0.4 2.251,0.4 3.952,0 5.253,-3.304 6.258,-6.606 l -9.512,-27.133 h 3.955 l 7.507,21.576 6.86,-21.576 h 3.704 z"
   id="path630184" />
			<path
   fill="#d51130"
   d="m 545.744,470.986 h -5.057 v -5.858 h 5.057 z"
   id="path630186" />
		</g>
	</g>
</g></svg>
