<?xml version="1.0" encoding="UTF-8" standalone="no"?>
<!-- Created with Inkscape (http://www.inkscape.org/) -->

<svg
   width="400mm"
   height="184.813mm"
   viewBox="0 0 400.00003 184.813"
   version="1.1"
   id="svg5"
   xml:space="preserve"
   inkscape:version="1.2.2 (732a01da63, 2022-12-09)"
   sodipodi:docname="Aufbau.svg"
   inkscape:export-filename="..\04_Software\UI\imgs\HFTM.svg"
   inkscape:export-xdpi="96"
   inkscape:export-ydpi="96"
   xmlns:inkscape="http://www.inkscape.org/namespaces/inkscape"
   xmlns:sodipodi="http://sodipodi.sourceforge.net/DTD/sodipodi-0.dtd"
   xmlns="http://www.w3.org/2000/svg"
   xmlns:svg="http://www.w3.org/2000/svg"><style
     id="style1425">
.measure-arrow
{
}
.measure-label
{

}
.measure-line
{
}</style><sodipodi:namedview
     id="namedview7"
     pagecolor="#ffffff"
     bordercolor="#000000"
     borderopacity="0.25"
     inkscape:showpageshadow="2"
     inkscape:pageopacity="0.0"
     inkscape:pagecheckerboard="0"
     inkscape:deskcolor="#d1d1d1"
     inkscape:document-units="mm"
     showgrid="false"
     inkscape:zoom="0.14270963"
     inkscape:cx="1674.7293"
     inkscape:cy="-367.87986"
     inkscape:window-width="2400"
     inkscape:window-height="1411"
     inkscape:window-x="2391"
     inkscape:window-y="-9"
     inkscape:window-maximized="1"
     inkscape:current-layer="svg5"
     inkscape:lockguides="true" /><defs
     id="defs2"><clipPath
       clipPathUnits="userSpaceOnUse"
       id="clipPath655705"><path
         d="M 0,90.709 H 90.709 V 0 H 0 Z"
         id="path655703" /></clipPath></defs><rect
     style="font-variation-settings:'wdth' 75, 'wght' 512;fill:#ffffff;fill-opacity:1;stroke:none;stroke-width:2.3795;stroke-linecap:square;stroke-linejoin:bevel;stroke-dasharray:none;stroke-dashoffset:0;stroke-opacity:1"
     id="rect573821-9"
     width="400"
     height="184.813"
     x="1.1368684e-13"
     y="0"
     ry="26.882967" /><style
     id="style1425-6">
.measure-arrow
{
}
.measure-label
{

}
.measure-line
{
}</style><style
     type="text/css"
     id="style245342">
	.st0{fill:#FFFFFF;}
	.st1{fill:none;}
	.st2{fill:#0062AE;}
	.st3{clip-path:url(#SVGID_00000002358357376170049520000004298317418494047119_);fill:#0062AE;}
	.st4{clip-path:url(#SVGID_00000127028224577092881960000007483239004178551740_);fill:#0062AE;}
	.st5{clip-path:url(#SVGID_00000134212148993211780580000001433661709248891067_);fill:#999999;}
</style><style
     type="text/css"
     id="style288922">
	.st0{fill:#E30613;}
</style><style
     type="text/css"
     id="style317668">
	.st0{fill:#FFFFFF;}
	.st1{fill:#00A587;}
</style><style
     type="text/css"
     id="style325384">
	.st0{fill:#003C62;}
</style><style
     id="style1425-65">
.measure-arrow
{
}
.measure-label
{

}
.measure-line
{
}</style><style
     id="style1425-6-7">
.measure-arrow
{
}
.measure-label
{

}
.measure-line
{
}</style><style
     type="text/css"
     id="style245342-3">
	.st0{fill:#FFFFFF;}
	.st1{fill:none;}
	.st2{fill:#0062AE;}
	.st3{clip-path:url(#SVGID_00000002358357376170049520000004298317418494047119_);fill:#0062AE;}
	.st4{clip-path:url(#SVGID_00000127028224577092881960000007483239004178551740_);fill:#0062AE;}
	.st5{clip-path:url(#SVGID_00000134212148993211780580000001433661709248891067_);fill:#999999;}
</style><style
     type="text/css"
     id="style288922-4">
	.st0{fill:#E30613;}
</style><style
     type="text/css"
     id="style317668-5">
	.st0{fill:#FFFFFF;}
	.st1{fill:#00A587;}
</style><style
     type="text/css"
     id="style325384-3">
	.st0{fill:#003C62;}
</style><style
     id="style1425-9">
.measure-arrow
{
}
.measure-label
{

}
.measure-line
{
}</style><style
     type="text/css"
     id="style245342-7">
	.st0{fill:#FFFFFF;}
	.st1{fill:none;}
	.st2{fill:#0062AE;}
	.st3{clip-path:url(#SVGID_00000002358357376170049520000004298317418494047119_);fill:#0062AE;}
	.st4{clip-path:url(#SVGID_00000127028224577092881960000007483239004178551740_);fill:#0062AE;}
	.st5{clip-path:url(#SVGID_00000134212148993211780580000001433661709248891067_);fill:#999999;}
</style><style
     type="text/css"
     id="style288922-1">
	.st0{fill:#E30613;}
</style><style
     type="text/css"
     id="style317668-3">
	.st0{fill:#FFFFFF;}
	.st1{fill:#00A587;}
</style><style
     type="text/css"
     id="style325384-1">
	.st0{fill:#003C62;}
</style><g
     id="g655699"
     transform="matrix(1.7970688,0,0,-1.7970685,118.49556,173.91092)"><g
       id="g655701"
       clip-path="url(#clipPath655705)"><g
         id="g655707"
         transform="translate(45.3546,87.8741)"><path
           d="M 0,0 C 23.482,0 42.519,-19.037 42.519,-42.519 42.519,-66.002 23.482,-85.04 0,-85.04 c -23.483,0 -42.52,19.038 -42.52,42.521 C -42.52,-19.037 -23.483,0 0,0"
           style="fill:#ef7c00;fill-opacity:1;fill-rule:nonzero;stroke:none"
           id="path655709" /></g><g
         id="g655711"
         transform="translate(45.3546,87.8741)"><path
           d="M 0,0 C 23.482,0 42.519,-19.037 42.519,-42.519 42.519,-66.002 23.482,-85.04 0,-85.04 c -23.483,0 -42.52,19.038 -42.52,42.521 C -42.52,-19.037 -23.483,0 0,0 Z"
           style="fill:none;stroke:#ef7c00;stroke-width:0.283;stroke-linecap:butt;stroke-linejoin:miter;stroke-miterlimit:3.864;stroke-dasharray:none;stroke-opacity:1"
           id="path655713" /></g><g
         id="g655715"
         transform="translate(13.4522,63.0489)"><path
           d="M 0,0 C 0,2.631 2.132,4.763 4.763,4.763 7.393,4.763 9.525,2.631 9.525,0 9.525,-2.63 7.393,-4.762 4.763,-4.762 2.132,-4.762 0,-2.63 0,0 M 11.634,2.98 C 12.028,2.068 12.246,1.058 12.246,0 c 0,-4.133 -3.35,-7.483 -7.483,-7.483 -4.134,0 -7.485,3.35 -7.485,7.483 0,4.134 3.351,7.484 7.485,7.484 1.535,0 2.962,-0.465 4.149,-1.258 v 1.938 c 0,3.57 2.895,6.465 6.464,6.465 l 18.3,-10e-4 V 3.742 H 23.064 c -0.226,0 -0.409,-0.182 -0.409,-0.408 v -6.667 c 0,-0.226 0.183,-0.408 0.409,-0.408 h 10.612 v -9.185 h -10.34 c -0.376,0 -0.681,-0.304 -0.681,-0.68 v -23.472 h 8.3 v 16.668 c 0,1.316 1.066,2.382 2.381,2.382 h 3.061 c 1.315,0 2.382,-1.066 2.382,-2.382 v -16.668 h 8.3 v 16.668 c 0,1.316 1.066,2.382 2.381,2.382 h 3.061 c 1.316,0 2.382,-1.066 2.382,-2.382 v -16.668 h 8.3 v 23.472 c 0,0.376 -0.305,0.68 -0.681,0.68 H 36.057 l 10e-4,2.721 h 27.485 c 1.315,0 2.381,-1.066 2.381,-2.381 V -39.799 H 52.18 v 18.641 c 0,0.226 -0.181,0.408 -0.407,0.408 h -1.565 c -0.225,0 -0.408,-0.182 -0.408,-0.408 V -39.799 H 36.057 v 18.641 c 0,0.226 -0.181,0.408 -0.407,0.408 h -1.567 c -0.226,0 -0.407,-0.182 -0.407,-0.408 V -39.799 H 2.993 v 2.721 h 5.919 v 23.472 c 0,0.376 -0.305,0.68 -0.68,0.68 h -7.62 v -26.873 h -2.721 v 29.594 H 9.252 c 1.315,0 2.382,-1.066 2.382,-2.381 v -24.492 h 8.3 v 24.492 c 0,1.315 1.066,2.381 2.38,2.381 h 8.641 v 3.742 h -8.641 c -1.314,0 -2.38,1.067 -2.38,2.381 v 8.164 c 0,1.315 1.066,2.382 2.38,2.382 h 8.641 v 5.442 h -15.58 c -2.066,0 -3.741,-1.676 -3.741,-3.742 z"
           style="fill:#ffffff;fill-opacity:1;fill-rule:evenodd;stroke:none"
           id="path655717" /></g></g></g></svg>
