<?xml version="1.0" encoding="UTF-8" standalone="no"?>
<!-- Created with Inkscape (http://www.inkscape.org/) -->

<svg
   width="400mm"
   height="184.81302mm"
   viewBox="0 0 400.00003 184.81302"
   version="1.1"
   id="svg5"
   xml:space="preserve"
   inkscape:version="1.2.2 (732a01da63, 2022-12-09)"
   sodipodi:docname="Aufbau.svg"
   inkscape:export-filename="..\04_Software\UI\imgs\HFTM.svg"
   inkscape:export-xdpi="96"
   inkscape:export-ydpi="96"
   xmlns:inkscape="http://www.inkscape.org/namespaces/inkscape"
   xmlns:sodipodi="http://sodipodi.sourceforge.net/DTD/sodipodi-0.dtd"
   xmlns="http://www.w3.org/2000/svg"
   xmlns:svg="http://www.w3.org/2000/svg"><style
     id="style1425">
.measure-arrow
{
}
.measure-label
{

}
.measure-line
{
}</style><sodipodi:namedview
     id="namedview7"
     pagecolor="#ffffff"
     bordercolor="#000000"
     borderopacity="0.25"
     inkscape:showpageshadow="2"
     inkscape:pageopacity="0.0"
     inkscape:pagecheckerboard="0"
     inkscape:deskcolor="#d1d1d1"
     inkscape:document-units="mm"
     showgrid="false"
     inkscape:zoom="0.14270963"
     inkscape:cx="1674.7293"
     inkscape:cy="-367.87986"
     inkscape:window-width="2400"
     inkscape:window-height="1411"
     inkscape:window-x="2391"
     inkscape:window-y="-9"
     inkscape:window-maximized="1"
     inkscape:current-layer="svg5"
     inkscape:lockguides="true" /><defs
     id="defs2" /><rect
     style="font-variation-settings:'wdth' 75, 'wght' 512;fill:#ffffff;fill-opacity:1;stroke:none;stroke-width:2.3795;stroke-linecap:square;stroke-linejoin:bevel;stroke-dasharray:none;stroke-dashoffset:0;stroke-opacity:1"
     id="rect573821-9"
     width="400"
     height="184.813"
     x="1.1368684e-13"
     y="0"
     ry="26.882967" /><style
     id="style1425-6">
.measure-arrow
{
}
.measure-label
{

}
.measure-line
{
}</style><style
     type="text/css"
     id="style245342">
	.st0{fill:#FFFFFF;}
	.st1{fill:none;}
	.st2{fill:#0062AE;}
	.st3{clip-path:url(#SVGID_00000002358357376170049520000004298317418494047119_);fill:#0062AE;}
	.st4{clip-path:url(#SVGID_00000127028224577092881960000007483239004178551740_);fill:#0062AE;}
	.st5{clip-path:url(#SVGID_00000134212148993211780580000001433661709248891067_);fill:#999999;}
</style><style
     type="text/css"
     id="style288922">
	.st0{fill:#E30613;}
</style><style
     type="text/css"
     id="style317668">
	.st0{fill:#FFFFFF;}
	.st1{fill:#00A587;}
</style><style
     type="text/css"
     id="style325384">
	.st0{fill:#003C62;}
</style><style
     id="style1425-65">
.measure-arrow
{
}
.measure-label
{

}
.measure-line
{
}</style><style
     id="style1425-6-7">
.measure-arrow
{
}
.measure-label
{

}
.measure-line
{
}</style><style
     type="text/css"
     id="style245342-3">
	.st0{fill:#FFFFFF;}
	.st1{fill:none;}
	.st2{fill:#0062AE;}
	.st3{clip-path:url(#SVGID_00000002358357376170049520000004298317418494047119_);fill:#0062AE;}
	.st4{clip-path:url(#SVGID_00000127028224577092881960000007483239004178551740_);fill:#0062AE;}
	.st5{clip-path:url(#SVGID_00000134212148993211780580000001433661709248891067_);fill:#999999;}
</style><style
     type="text/css"
     id="style288922-4">
	.st0{fill:#E30613;}
</style><style
     type="text/css"
     id="style317668-5">
	.st0{fill:#FFFFFF;}
	.st1{fill:#00A587;}
</style><style
     type="text/css"
     id="style325384-3">
	.st0{fill:#003C62;}
</style><style
     id="style1425-9">
.measure-arrow
{
}
.measure-label
{

}
.measure-line
{
}</style><style
     type="text/css"
     id="style245342-7">
	.st0{fill:#FFFFFF;}
	.st1{fill:none;}
	.st2{fill:#0062AE;}
	.st3{clip-path:url(#SVGID_00000002358357376170049520000004298317418494047119_);fill:#0062AE;}
	.st4{clip-path:url(#SVGID_00000127028224577092881960000007483239004178551740_);fill:#0062AE;}
	.st5{clip-path:url(#SVGID_00000134212148993211780580000001433661709248891067_);fill:#999999;}
</style><style
     type="text/css"
     id="style288922-1">
	.st0{fill:#E30613;}
</style><style
     type="text/css"
     id="style317668-3">
	.st0{fill:#FFFFFF;}
	.st1{fill:#00A587;}
</style><style
     type="text/css"
     id="style325384-1">
	.st0{fill:#003C62;}
</style><style
     type="text/css"
     id="style664914">
	.st0{fill:#E30613;}
</style><g
     id="g664926"
     transform="matrix(1.2341107,0,0,1.2341107,24.999997,47.731694)">
	<path
   class="st0"
   d="M 176.3,59.6 204.6,27.8 H 178 V 16.6 h 45 v 11.2 l -28,31.6 h 29.7 v 11.5 h -48.4 z"
   id="path664916" />
	<path
   class="st0"
   d="m 93,54.9 c -1.4,3.1 -6,6.2 -11.4,6.2 -8.4,0 -12.9,-4.2 -13.3,-13.8 h 39.2 c 1.2,-16.7 -7.9,-32.2 -26.4,-32.2 -16.5,0 -27.7,12.4 -27.7,28.7 0,16.8 10.6,28.6 27.7,28.6 12,0 20.8,-5.1 25.1,-17.4 z M 80.6,26.3 c 7.2,0 10.5,4 11.9,11.6 H 68.2 C 68.5,33.7 71,26.3 80.6,26.3 Z"
   id="path664918" />
	<path
   class="st0"
   d="m 269,54.9 c -1.4,3.1 -6,6.2 -11.4,6.2 -8.4,0 -12.9,-4.2 -13.3,-13.8 h 39.2 c 1.2,-16.7 -7.9,-32.2 -26.4,-32.2 -16.5,0 -27.7,12.4 -27.7,28.7 0,16.8 10.6,28.6 27.7,28.6 12,0 20.8,-5.1 25.1,-17.4 z M 256.6,26.3 c 7.2,0 10.5,4 11.9,11.6 h -24.3 c 0.3,-4.2 2.7,-11.6 12.4,-11.6 z"
   id="path664920" />
	<path
   class="st0"
   d="m 130.6,16.6 v 30.3 c 0,3.3 0.1,7.1 2.5,10 1.8,2.2 5.1,3.8 9.1,3.8 4,0 7.2,-1.6 9.1,-3.8 2.4,-2.9 2.5,-6.7 2.5,-10 V 16.6 h 13.9 v 30.7 c 0,7.1 -0.9,13.1 -6.4,18.2 -5.4,5 -12.7,6.9 -19.4,6.9 -6.1,0 -13.4,-1.7 -18.8,-6.9 -5.5,-5.1 -6.4,-11.1 -6.4,-18.2 V 16.6 Z"
   id="path664922" />
	<polygon
   class="st0"
   points="0,70.9 48.2,70.9 48.2,57 16.3,57 16.3,0 0,0 "
   id="polygon664924" />
</g></svg>
