<?xml version="1.0" encoding="UTF-8" standalone="no"?>
<!-- Created with Inkscape (http://www.inkscape.org/) -->

<svg
   width="400mm"
   height="184.81302mm"
   viewBox="0 0 400.00003 184.81302"
   version="1.1"
   id="svg5"
   xml:space="preserve"
   inkscape:version="1.2.2 (732a01da63, 2022-12-09)"
   sodipodi:docname="Aufbau.svg"
   inkscape:export-filename="..\04_Software\UI\imgs\Leuze.svg"
   inkscape:export-xdpi="96"
   inkscape:export-ydpi="96"
   xmlns:inkscape="http://www.inkscape.org/namespaces/inkscape"
   xmlns:sodipodi="http://sodipodi.sourceforge.net/DTD/sodipodi-0.dtd"
   xmlns="http://www.w3.org/2000/svg"
   xmlns:svg="http://www.w3.org/2000/svg"><style
     id="style1425">
.measure-arrow
{
}
.measure-label
{

}
.measure-line
{
}</style><sodipodi:namedview
     id="namedview7"
     pagecolor="#ffffff"
     bordercolor="#000000"
     borderopacity="0.25"
     inkscape:showpageshadow="2"
     inkscape:pageopacity="0.0"
     inkscape:pagecheckerboard="0"
     inkscape:deskcolor="#d1d1d1"
     inkscape:document-units="mm"
     showgrid="false"
     inkscape:zoom="0.14270963"
     inkscape:cx="1674.7293"
     inkscape:cy="-367.87986"
     inkscape:window-width="2400"
     inkscape:window-height="1411"
     inkscape:window-x="2391"
     inkscape:window-y="-9"
     inkscape:window-maximized="1"
     inkscape:current-layer="svg5"
     inkscape:lockguides="true" /><defs
     id="defs2" /><rect
     style="font-variation-settings:'wdth' 75, 'wght' 512;fill:#ffffff;fill-opacity:1;stroke:none;stroke-width:2.3795;stroke-linecap:square;stroke-linejoin:bevel;stroke-dasharray:none;stroke-dashoffset:0;stroke-opacity:1"
     id="rect573821-9"
     width="400"
     height="184.813"
     x="1.1368684e-13"
     y="0"
     ry="26.882967" /><style
     id="style1425-6">
.measure-arrow
{
}
.measure-label
{

}
.measure-line
{
}</style><style
     type="text/css"
     id="style245342">
	.st0{fill:#FFFFFF;}
	.st1{fill:none;}
	.st2{fill:#0062AE;}
	.st3{clip-path:url(#SVGID_00000002358357376170049520000004298317418494047119_);fill:#0062AE;}
	.st4{clip-path:url(#SVGID_00000127028224577092881960000007483239004178551740_);fill:#0062AE;}
	.st5{clip-path:url(#SVGID_00000134212148993211780580000001433661709248891067_);fill:#999999;}
</style><style
     type="text/css"
     id="style288922">
	.st0{fill:#E30613;}
</style><style
     type="text/css"
     id="style317668">
	.st0{fill:#FFFFFF;}
	.st1{fill:#00A587;}
</style><style
     type="text/css"
     id="style325384">
	.st0{fill:#003C62;}
</style><style
     id="style1425-65">
.measure-arrow
{
}
.measure-label
{

}
.measure-line
{
}</style><style
     id="style1425-6-7">
.measure-arrow
{
}
.measure-label
{

}
.measure-line
{
}</style><style
     type="text/css"
     id="style245342-3">
	.st0{fill:#FFFFFF;}
	.st1{fill:none;}
	.st2{fill:#0062AE;}
	.st3{clip-path:url(#SVGID_00000002358357376170049520000004298317418494047119_);fill:#0062AE;}
	.st4{clip-path:url(#SVGID_00000127028224577092881960000007483239004178551740_);fill:#0062AE;}
	.st5{clip-path:url(#SVGID_00000134212148993211780580000001433661709248891067_);fill:#999999;}
</style><style
     type="text/css"
     id="style288922-4">
	.st0{fill:#E30613;}
</style><style
     type="text/css"
     id="style317668-5">
	.st0{fill:#FFFFFF;}
	.st1{fill:#00A587;}
</style><style
     type="text/css"
     id="style325384-3">
	.st0{fill:#003C62;}
</style><style
     id="style1425-9">
.measure-arrow
{
}
.measure-label
{

}
.measure-line
{
}</style><style
     type="text/css"
     id="style245342-7">
	.st0{fill:#FFFFFF;}
	.st1{fill:none;}
	.st2{fill:#0062AE;}
	.st3{clip-path:url(#SVGID_00000002358357376170049520000004298317418494047119_);fill:#0062AE;}
	.st4{clip-path:url(#SVGID_00000127028224577092881960000007483239004178551740_);fill:#0062AE;}
	.st5{clip-path:url(#SVGID_00000134212148993211780580000001433661709248891067_);fill:#999999;}
</style><style
     type="text/css"
     id="style288922-1">
	.st0{fill:#E30613;}
</style><style
     type="text/css"
     id="style317668-3">
	.st0{fill:#FFFFFF;}
	.st1{fill:#00A587;}
</style><style
     type="text/css"
     id="style325384-1">
	.st0{fill:#003C62;}
</style><style
     type="text/css"
     id="style664914">
	.st0{fill:#E30613;}
</style><g
     transform="matrix(0.44898988,0,0,0.44898988,-1703.7221,1165.1165)"
     id="g20018"><path
       d="m 3929.0014,-2310.1335 c -43.3066,0 -78.754,-35.4474 -78.754,-79.3834 0,-43.228 35.4474,-78.6754 78.754,-78.6754 43.8574,0 79.3048,35.4474 79.3048,78.6754 0,43.936 -35.4474,79.3834 -79.3048,79.3834 z m 0,-33.0893 c 25.7803,0 46.2155,-20.4352 46.2155,-46.2941 0,-25.2295 -20.4352,-45.6647 -46.2155,-45.6647 -25.3081,0 -45.7433,20.4352 -45.7433,45.6647 0,25.8589 20.4352,46.2941 45.7433,46.2941"
       style="fill:#166fc0;fill-rule:evenodd;stroke:none"
       id="path19971" /><path
       d="m 4414.6539,-2310.1335 c -43.3066,0 -78.754,-35.4474 -78.754,-79.3834 0,-43.228 35.4474,-78.6754 78.754,-78.6754 43.8574,0 79.3048,35.4474 79.3048,78.6754 0,43.936 -35.4474,79.3834 -79.3048,79.3834 z m 0,-33.0893 c 25.7803,0 46.2155,-20.4352 46.2155,-46.2941 0,-25.2295 -20.4352,-45.6647 -46.2155,-45.6647 -25.3081,0 -45.7433,20.4352 -45.7433,45.6647 0,25.8589 20.4352,46.2941 45.7433,46.2941"
       style="fill:#166fc0;fill-rule:evenodd;stroke:none"
       id="path19973" /><path
       d="m 4017.3451,-2463.3981 v 149.6494 h 33.0106 v -121.9832 h 36.7051 v 121.9832 h 33.0107 v -121.9832 h 12.654 c 13.2048,0 23.4222,10.2174 23.4222,22.7934 v 99.1898 h 33.0893 v -98.0108 c 0,-29.3954 -23.4217,-52.8962 -52.8957,-52.8962 h -85.3567 c -11.3964,0 -22.872,0 -33.6395,1.2576"
       style="fill:#166fc0;fill-rule:evenodd;stroke:none"
       id="path19975" /><path
       d="m 4502.9976,-2463.3981 v 149.6494 h 33.0107 v -121.9832 h 37.3338 c 12.5755,0 23.4216,10.2174 23.4216,22.7934 v 99.1898 h 33.0113 v -98.0108 c 0,-29.3954 -23.4222,-52.8962 -52.8963,-52.8962 h -40.8704 c -10.7676,0 -22.2432,0 -33.0107,1.2576"
       style="fill:#166fc0;fill-rule:evenodd;stroke:none"
       id="path19977" /><path
       d="m 4203.0701,-2463.3981 v 149.6494 h 33.0112 v -121.9832 h 39.0626 c 13.2829,0 23.5008,10.2174 23.5008,22.7934 0,13.2043 -10.2179,23.4216 -23.5008,23.4216 h -28.2164 l 51.0883,75.7682 h 40.8705 l -37.2553,-54.7041 c 17.9991,-6.6022 30.0243,-24.0505 30.0243,-44.4857 0,-28.2164 -22.7933,-51.7172 -51.7166,-51.7172 h -43.8574 c -11.3969,0 -22.2431,0 -33.0112,1.2576"
       style="fill:#166fc0;fill-rule:evenodd;stroke:none"
       id="path19979" /></g></svg>
