<?xml version="1.0" encoding="UTF-8" standalone="no"?>
<!-- Created with Inkscape (http://www.inkscape.org/) -->

<svg
   width="400mm"
   height="184.81302mm"
   viewBox="0 0 400.00003 184.81302"
   version="1.1"
   id="svg5"
   xml:space="preserve"
   inkscape:version="1.2.2 (732a01da63, 2022-12-09)"
   sodipodi:docname="Aufbau.svg"
   inkscape:export-filename="..\04_Software\UI\imgs\puf.svg"
   inkscape:export-xdpi="96"
   inkscape:export-ydpi="96"
   xmlns:inkscape="http://www.inkscape.org/namespaces/inkscape"
   xmlns:sodipodi="http://sodipodi.sourceforge.net/DTD/sodipodi-0.dtd"
   xmlns="http://www.w3.org/2000/svg"
   xmlns:svg="http://www.w3.org/2000/svg"><style
     id="style1425">
.measure-arrow
{
}
.measure-label
{

}
.measure-line
{
}</style><sodipodi:namedview
     id="namedview7"
     pagecolor="#ffffff"
     bordercolor="#000000"
     borderopacity="0.25"
     inkscape:showpageshadow="2"
     inkscape:pageopacity="0.0"
     inkscape:pagecheckerboard="0"
     inkscape:deskcolor="#d1d1d1"
     inkscape:document-units="mm"
     showgrid="false"
     inkscape:zoom="0.14270963"
     inkscape:cx="1674.7293"
     inkscape:cy="-367.87986"
     inkscape:window-width="2400"
     inkscape:window-height="1411"
     inkscape:window-x="2391"
     inkscape:window-y="-9"
     inkscape:window-maximized="1"
     inkscape:current-layer="svg5"
     inkscape:lockguides="true" /><defs
     id="defs2" /><rect
     style="font-variation-settings:'wdth' 75, 'wght' 512;fill:#ffffff;fill-opacity:1;stroke:none;stroke-width:2.3795;stroke-linecap:square;stroke-linejoin:bevel;stroke-dasharray:none;stroke-dashoffset:0;stroke-opacity:1"
     id="rect573821-9"
     width="400"
     height="184.813"
     x="1.1368684e-13"
     y="0"
     ry="26.882967" /><style
     id="style1425-6">
.measure-arrow
{
}
.measure-label
{

}
.measure-line
{
}</style><style
     type="text/css"
     id="style245342">
	.st0{fill:#FFFFFF;}
	.st1{fill:none;}
	.st2{fill:#0062AE;}
	.st3{clip-path:url(#SVGID_00000002358357376170049520000004298317418494047119_);fill:#0062AE;}
	.st4{clip-path:url(#SVGID_00000127028224577092881960000007483239004178551740_);fill:#0062AE;}
	.st5{clip-path:url(#SVGID_00000134212148993211780580000001433661709248891067_);fill:#999999;}
</style><style
     type="text/css"
     id="style288922">
	.st0{fill:#E30613;}
</style><style
     type="text/css"
     id="style317668">
	.st0{fill:#FFFFFF;}
	.st1{fill:#00A587;}
</style><style
     type="text/css"
     id="style325384">
	.st0{fill:#003C62;}
</style><style
     id="style1425-65">
.measure-arrow
{
}
.measure-label
{

}
.measure-line
{
}</style><style
     id="style1425-6-7">
.measure-arrow
{
}
.measure-label
{

}
.measure-line
{
}</style><style
     type="text/css"
     id="style245342-3">
	.st0{fill:#FFFFFF;}
	.st1{fill:none;}
	.st2{fill:#0062AE;}
	.st3{clip-path:url(#SVGID_00000002358357376170049520000004298317418494047119_);fill:#0062AE;}
	.st4{clip-path:url(#SVGID_00000127028224577092881960000007483239004178551740_);fill:#0062AE;}
	.st5{clip-path:url(#SVGID_00000134212148993211780580000001433661709248891067_);fill:#999999;}
</style><style
     type="text/css"
     id="style288922-4">
	.st0{fill:#E30613;}
</style><style
     type="text/css"
     id="style317668-5">
	.st0{fill:#FFFFFF;}
	.st1{fill:#00A587;}
</style><style
     type="text/css"
     id="style325384-3">
	.st0{fill:#003C62;}
</style><style
     id="style1425-9">
.measure-arrow
{
}
.measure-label
{

}
.measure-line
{
}</style><style
     type="text/css"
     id="style245342-7">
	.st0{fill:#FFFFFF;}
	.st1{fill:none;}
	.st2{fill:#0062AE;}
	.st3{clip-path:url(#SVGID_00000002358357376170049520000004298317418494047119_);fill:#0062AE;}
	.st4{clip-path:url(#SVGID_00000127028224577092881960000007483239004178551740_);fill:#0062AE;}
	.st5{clip-path:url(#SVGID_00000134212148993211780580000001433661709248891067_);fill:#999999;}
</style><style
     type="text/css"
     id="style288922-1">
	.st0{fill:#E30613;}
</style><style
     type="text/css"
     id="style317668-3">
	.st0{fill:#FFFFFF;}
	.st1{fill:#00A587;}
</style><style
     type="text/css"
     id="style325384-1">
	.st0{fill:#003C62;}
</style><style
     type="text/css"
     id="style664914">
	.st0{fill:#E30613;}
</style><style
     type="text/css"
     id="style686363">
	.st0{fill:#FFFFFF;}
	.st1{fill:#00A587;}
</style><style
     type="text/css"
     id="style691876">
	.st0{fill:#003C62;}
</style><g
     id="g691944"
     transform="matrix(1.4069525,0,0,1.4069525,-24.046366,5.3935244)"><g
       id="g691898">
	<path
   d="m 283.6,53.12 h -9.56 c -0.04,0.57 -0.09,1.05 -0.19,1.61 -0.14,0.8 -0.46,1.45 -0.99,2.05 -0.52,0.59 -1.14,0.92 -1.92,1.03 -1.24,0.19 -2.37,-0.18 -3.28,-1.04 -0.8,-0.75 -1.29,-1.59 -1.59,-2.64 -0.71,-2.52 -0.67,-4.82 0.12,-7.31 0.32,-1.05 0.93,-1.83 1.86,-2.41 1.36,-0.84 2.99,-0.77 4.26,0.21 0.97,0.75 1.56,1.72 1.76,2.93 h 9.06 c 0.09,-1.57 -0.21,-2.93 -0.93,-4.32 -0.61,-1.19 -1.3,-2.09 -2.28,-3.01 -1.55,-1.44 -3.18,-2.33 -5.22,-2.86 -2.87,-0.74 -5.46,-0.8 -8.35,-0.2 -5.08,1.06 -8.86,4.63 -10.21,9.66 -0.59,2.21 -0.69,4.2 -0.31,6.46 0.26,1.64 0.75,2.97 1.57,4.41 1.06,1.84 2.28,3.22 3.99,4.5 2.08,1.56 4.22,2.4 6.82,2.68 1.94,0.2 3.63,0.11 5.55,-0.28 2.84,-0.58 5.12,-1.84 7.12,-3.95 2,-2.09 2.91,-4.63 2.72,-7.52 z"
   id="path691878" />
	<rect
   x="244.34"
   y="26.85"
   width="9.9200001"
   height="7.0300002"
   id="rect691880" />
	<rect
   x="244.34"
   y="37.490002"
   width="9.9200001"
   height="26.620001"
   id="rect691882" />
	<path
   d="m 235.75,37.04 c -2.71,-0.79 -5.27,-0.6 -7.84,0.59 -1.57,0.73 -2.81,1.54 -4.12,2.68 L 223.57,37.5 H 214 v 26.62 h 10.2 V 49.28 c 0,-0.85 0.2,-1.57 0.62,-2.3 1.02,-1.76 3.15,-2.47 5.02,-1.67 0.85,0.36 1.43,1.02 1.7,1.91 0.16,0.49 0.22,0.93 0.22,1.44 v 15.45 h 10.53 V 46.93 c 0,-1.45 -0.19,-2.69 -0.62,-4.09 -0.92,-2.89 -3.01,-4.95 -5.92,-5.8 z"
   id="path691884" />
	<path
   d="m 118.46,37.04 c -2.71,-0.79 -5.27,-0.6 -7.83,0.59 -1.56,0.73 -2.81,1.54 -4.12,2.68 l -0.22,-2.81 h -9.56 v 26.62 h 10.19 V 49.28 c -0.01,-0.85 0.19,-1.57 0.62,-2.3 1.02,-1.76 3.14,-2.47 5.01,-1.67 0.86,0.36 1.44,1.02 1.71,1.91 0.15,0.49 0.21,0.93 0.21,1.44 V 64.11 H 125 V 46.93 c 0,-1.45 -0.19,-2.69 -0.63,-4.09 -0.9,-2.89 -3,-4.95 -5.91,-5.8 z"
   id="path691886" />
	<path
   d="m 180.03,50.03 c -1.35,-1.16 -2.71,-1.91 -4.4,-2.4 -0.37,-0.1 -0.69,-0.2 -1.06,-0.3 -2.09,-0.58 -3.87,-0.96 -6.02,-1.28 -0.56,-0.08 -1.05,-0.18 -1.61,-0.31 -0.26,-0.06 -0.47,-0.13 -0.72,-0.24 -0.6,-0.27 -0.86,-0.98 -0.59,-1.58 0.01,-0.03 0.03,-0.06 0.04,-0.09 0.33,-0.57 0.8,-0.95 1.44,-1.14 1.1,-0.32 2.12,-0.29 3.21,0.07 1.05,0.36 1.7,1.32 1.66,2.43 h 9.35 c 0,-1.15 -0.18,-2.13 -0.57,-3.21 -0.4,-1.1 -1.01,-1.93 -1.91,-2.66 -0.79,-0.63 -1.55,-1.07 -2.5,-1.43 -0.93,-0.37 -1.74,-0.59 -2.71,-0.76 -2.32,-0.4 -4.31,-0.51 -6.66,-0.38 -1.35,0.08 -2.48,0.24 -3.79,0.55 -1.77,0.41 -3.2,1.11 -4.62,2.22 -1.21,0.95 -2.01,2.07 -2.52,3.54 -0.22,0.66 -0.34,1.24 -0.37,1.95 -0.05,1.16 0.12,2.16 0.55,3.24 0.77,1.95 2.13,3.33 4.08,4.1 0.98,0.39 1.84,0.65 2.88,0.86 2.04,0.43 3.77,0.75 5.82,1.11 0.76,0.13 1.39,0.29 2.13,0.53 0.61,0.2 1.02,0.67 1.16,1.3 0.15,0.68 -0.04,1.33 -0.54,1.83 -0.49,0.51 -1.06,0.79 -1.77,0.9 -0.92,0.15 -1.76,0.07 -2.65,-0.25 -0.43,-0.16 -0.77,-0.36 -1.12,-0.65 -0.46,-0.38 -0.75,-0.82 -0.93,-1.4 -0.15,-0.48 -0.2,-0.91 -0.2,-1.41 h -9.71 v 0.56 c 0,0.92 0.14,1.69 0.47,2.56 0.47,1.29 1.15,2.29 2.15,3.23 1.32,1.23 2.68,2 4.42,2.49 3.6,1.03 6.83,1.23 10.51,0.67 1.73,-0.27 3.16,-0.73 4.72,-1.54 0.68,-0.36 1.23,-0.73 1.83,-1.23 2.62,-2.21 3.6,-5.58 2.54,-8.86 -0.39,-1.22 -1.02,-2.17 -1.99,-3.02 z"
   id="path691888" />
	<path
   d="M 66.33,34.34 C 64.25,29.9 60.24,27.17 55.35,26.91 54.62,26.87 54,26.85 53.26,26.85 H 34.86 V 64.11 H 46.13 V 52.63 h 6.8 c 1.79,0 3.29,-0.16 5.02,-0.54 5.24,-1.15 8.97,-5.31 9.56,-10.66 0.27,-2.55 -0.09,-4.78 -1.18,-7.09 z m -9.9,6.35 c -0.1,0.61 -0.29,1.12 -0.67,1.61 -0.7,0.95 -1.66,1.46 -2.82,1.54 -0.83,0.04 -1.54,0.06 -2.39,0.06 h -4.42 v -8.09 h 6.59 c 1.96,0 3.55,1.46 3.74,3.4 0.05,0.51 0.04,0.96 -0.03,1.48 z"
   id="path691890" />
	<path
   d="m 208.56,40.83 c -2.22,-2.14 -4.68,-3.37 -7.73,-3.85 -1.06,-0.17 -1.96,-0.24 -3.01,-0.24 -1.06,0 -1.96,0.07 -3,0.24 -3.05,0.47 -5.52,1.71 -7.75,3.85 -2.38,2.29 -3.67,5 -3.97,8.3 -0.18,2.03 -0.02,3.77 0.52,5.73 0.83,3 2.38,5.32 4.86,7.22 1.62,1.25 3.24,2 5.23,2.44 1.42,0.31 2.65,0.44 4.11,0.44 1.45,0 2.69,-0.13 4.11,-0.44 1.99,-0.44 3.62,-1.19 5.24,-2.44 2.47,-1.9 4.03,-4.22 4.86,-7.22 0.55,-1.96 0.71,-3.7 0.52,-5.73 -0.31,-3.3 -1.61,-6.01 -3.99,-8.3 z m -6.34,12.45 c -0.15,0.93 -0.37,1.71 -0.76,2.57 -0.91,2.02 -3.27,2.91 -5.29,2.01 -0.93,-0.42 -1.58,-1.08 -2,-2.01 -0.38,-0.86 -0.61,-1.64 -0.75,-2.57 -0.29,-1.87 -0.25,-3.5 0.11,-5.35 0.19,-0.97 0.5,-1.76 1.04,-2.57 1.17,-1.8 3.58,-2.3 5.37,-1.12 0.46,0.3 0.81,0.65 1.11,1.12 0.54,0.81 0.86,1.6 1.04,2.57 0.37,1.85 0.41,3.48 0.13,5.35 z"
   id="path691892" />
	<path
   d="m 154.03,55.76 c -0.06,-2.89 -0.1,-5.33 -0.12,-8.22 -0.01,-1.55 -0.18,-2.88 -0.57,-4.38 -0.5,-1.98 -1.66,-3.48 -3.44,-4.48 -1.07,-0.6 -2.05,-0.98 -3.26,-1.24 -3.82,-0.82 -7.19,-0.89 -11.05,-0.22 -1.08,0.19 -1.98,0.45 -3,0.87 -2.34,0.97 -3.96,2.75 -4.72,5.18 -0.29,0.93 -0.38,1.77 -0.26,2.75 0.02,0.17 0.07,0.32 0.15,0.49 l 8.92,0.22 c -0.03,-0.57 0.04,-1.05 0.24,-1.59 0.29,-0.82 0.87,-1.4 1.68,-1.7 1.2,-0.44 2.35,-0.46 3.55,-0.06 0.8,0.27 1.37,0.84 1.62,1.65 0.16,0.5 0.08,0.99 -0.22,1.42 -0.27,0.38 -0.6,0.64 -1.02,0.8 -0.27,0.1 -0.49,0.18 -0.77,0.25 -1.24,0.33 -2.29,0.56 -3.56,0.78 -1.01,0.17 -1.85,0.32 -2.84,0.52 -1.36,0.27 -2.49,0.57 -3.79,0.99 -1.2,0.39 -2.14,0.94 -3.07,1.79 -1.2,1.11 -1.9,2.42 -2.12,4.04 -0.14,1.09 -0.11,2.03 0.13,3.1 0.62,2.78 2.53,4.83 5.26,5.62 3.03,0.88 5.86,0.74 8.77,-0.44 1.41,-0.57 2.5,-1.37 3.47,-2.55 0.2,0.65 0.38,1.2 0.6,1.83 0.12,0.36 0.29,0.63 0.54,0.91 h 9.83 c -0.41,-0.66 -0.64,-1.31 -0.68,-2.1 -0.15,-2.18 -0.23,-4.03 -0.27,-6.23 z m -9.94,-0.86 c -0.09,0.71 -0.31,1.29 -0.7,1.89 -0.45,0.7 -1.01,1.18 -1.76,1.51 -0.71,0.31 -1.34,0.48 -2.11,0.56 -0.65,0.07 -1.2,0.02 -1.83,-0.15 -0.5,-0.14 -0.89,-0.38 -1.25,-0.77 -0.31,-0.32 -0.48,-0.67 -0.57,-1.11 -0.14,-0.67 0.08,-1.31 0.6,-1.77 0.35,-0.3 0.7,-0.49 1.12,-0.65 1.04,-0.38 1.92,-0.68 2.98,-0.97 1.3,-0.36 2.35,-0.75 3.56,-1.31 0.11,0.96 0.09,1.8 -0.04,2.77 z"
   id="path691894" />
	<path
   d="M 94.49,55.76 C 94.43,52.87 94.4,50.43 94.38,47.54 94.37,45.99 94.2,44.66 93.81,43.16 93.3,41.18 92.14,39.68 90.36,38.68 89.29,38.08 88.32,37.7 87.1,37.44 83.28,36.62 79.91,36.55 76.05,37.22 c -1.08,0.19 -1.98,0.45 -2.99,0.87 -2.35,0.97 -3.97,2.75 -4.72,5.18 -0.28,0.93 -0.36,1.77 -0.25,2.75 0.03,0.17 0.07,0.32 0.14,0.49 l 8.93,0.22 c -0.02,-0.57 0.05,-1.05 0.24,-1.59 0.29,-0.82 0.86,-1.4 1.67,-1.7 1.2,-0.44 2.35,-0.46 3.57,-0.06 0.79,0.27 1.37,0.84 1.61,1.65 0.14,0.5 0.07,0.99 -0.23,1.42 -0.27,0.38 -0.59,0.64 -1.02,0.8 -0.26,0.1 -0.49,0.18 -0.77,0.25 -1.24,0.33 -2.3,0.56 -3.57,0.78 -1.01,0.17 -1.84,0.32 -2.84,0.52 -1.35,0.27 -2.48,0.57 -3.79,0.99 -1.2,0.39 -2.14,0.94 -3.06,1.79 -1.2,1.11 -1.89,2.42 -2.13,4.04 -0.15,1.09 -0.11,2.03 0.12,3.1 0.63,2.78 2.55,4.83 5.27,5.62 3.01,0.88 5.85,0.74 8.78,-0.44 1.42,-0.57 2.49,-1.37 3.47,-2.55 0.2,0.65 0.37,1.2 0.61,1.83 0.12,0.36 0.28,0.63 0.53,0.91 h 9.83 c -0.41,-0.66 -0.64,-1.31 -0.69,-2.1 -0.14,-2.18 -0.23,-4.03 -0.27,-6.23 z M 84.56,54.9 c -0.09,0.71 -0.3,1.29 -0.7,1.89 -0.44,0.7 -1,1.18 -1.77,1.51 -0.7,0.31 -1.34,0.48 -2.11,0.56 -0.64,0.07 -1.2,0.02 -1.81,-0.15 -0.51,-0.14 -0.91,-0.38 -1.26,-0.77 -0.3,-0.32 -0.48,-0.67 -0.58,-1.11 -0.14,-0.67 0.08,-1.31 0.6,-1.77 0.36,-0.3 0.69,-0.49 1.13,-0.65 1.03,-0.38 1.91,-0.68 2.98,-0.97 1.28,-0.36 2.34,-0.75 3.55,-1.31 0.11,0.96 0.11,1.8 -0.03,2.77 z"
   id="path691896" />
</g><g
       id="g691916">
	<path
   class="st0"
   d="m 93.23,79.25 c 0,-0.15 0.1,-0.26 0.26,-0.26 h 2.66 c 0.15,0 0.26,0.1 0.26,0.26 V 95.5 c 0,0.91 -0.39,1.09 -2.12,1.09 h -0.8 c -0.18,0 -0.26,-0.08 -0.26,-0.26 z"
   id="path691900" />
	<path
   class="st0"
   d="m 115.32,89.24 c 0,-5.17 -0.44,-9.21 -0.75,-10.32 h 0.57 c 1.6,0 2.41,0.05 2.61,0.47 0.31,0.65 0.36,4.4 0.36,9.75 0,3.05 -0.13,5.95 -0.52,6.93 -0.13,0.34 -0.49,0.52 -2.22,0.52 h -0.26 c -0.39,0 -0.67,-0.1 -0.8,-0.23 -1.68,-1.5 -5.92,-7.27 -9.05,-13.63 -0.05,-0.13 -0.29,-0.16 -0.29,0.05 l 0.26,12.73 c 0,0.91 -0.44,1.09 -2.17,1.09 h -0.72 c -0.18,0 -0.26,-0.08 -0.26,-0.26 V 79.25 c 0,-0.15 0.1,-0.26 0.26,-0.26 h 4.14 c 0.16,0 0.23,0.1 0.31,0.26 3.67,7.42 7.09,12.08 8.15,13.19 0.13,0.15 0.28,0.15 0.31,-0.05 0.05,-0.85 0.07,-2.01 0.07,-3.15 z"
   id="path691902" />
	<path
   class="st0"
   d="m 129.11,78.79 c 6.18,0 10.58,1.68 10.58,8.56 0,5.95 -2.46,9.49 -9.91,9.49 -2.33,0 -4.09,-0.16 -5.15,-0.59 -0.67,-0.29 -1.04,-0.8 -1.04,-1.5 V 79.38 c 0,-0.16 0.1,-0.23 0.26,-0.26 1.51,-0.25 3.76,-0.33 5.26,-0.33 z m 0.13,2.38 c -0.49,0 -1.63,0.05 -2.22,0.13 -0.16,0.03 -0.23,0.08 -0.23,0.18 v 11.95 c 0,0.34 0.08,0.62 0.46,0.7 0.49,0.1 1.32,0.18 2.3,0.18 4.68,0 6.78,-2.15 6.78,-6.65 0,-4.63 -2.04,-6.49 -7.09,-6.49 z"
   id="path691904" />
	<path
   class="st0"
   d="m 147.04,87.58 c 0,5.22 0.57,6.75 4.37,6.75 3.91,0 4.58,-2.28 4.58,-7.71 0,-2.07 -0.21,-6.67 -0.62,-7.79 h 0.57 c 1.6,0 2.33,0.03 2.59,0.41 0.44,0.65 0.65,3.29 0.65,7.84 0,6.65 -1.97,9.75 -7.89,9.75 -6.8,0 -7.42,-3.36 -7.42,-7.55 V 79.25 c 0,-0.15 0.1,-0.26 0.26,-0.26 h 2.66 c 0.16,0 0.26,0.1 0.26,0.26 v 8.33 z"
   id="path691906" />
	<path
   class="st0"
   d="m 168.59,88.64 c -3.85,-1.34 -5.28,-2.22 -5.28,-5.09 0,-3.39 2.84,-4.81 6.93,-4.81 2.07,0 3.9,0.28 4.73,0.93 0.31,0.26 0.41,0.52 0.41,1.11 0,0.41 -0.1,0.91 -0.26,1.29 -1.37,-0.57 -2.87,-1.01 -4.76,-1.01 -2.79,0 -3.98,0.88 -3.98,2.41 0,1.32 0.85,1.89 4.32,2.95 3.85,1.19 5.1,2.61 5.1,4.99 0,3.98 -2.56,5.43 -7.32,5.43 -2.3,0 -3.98,-0.39 -4.79,-1.11 -0.54,-0.49 -0.88,-1.14 -0.88,-2.07 v -0.23 c 1.32,0.52 3.93,0.96 5.87,0.96 2.85,0 3.91,-1.04 3.91,-2.69 0.01,-1.45 -1.08,-2.05 -4,-3.06 z"
   id="path691908" />
	<path
   class="st0"
   d="m 183.26,81.51 h -4.99 c 0.05,-2.12 0.18,-2.51 1.6,-2.51 h 5.56 c 1.14,0 4.96,0 6.13,-0.1 0,1.06 -0.08,1.76 -0.57,2.2 -0.34,0.31 -1.11,0.41 -4.55,0.41 V 95.5 c 0,0.91 -0.44,1.09 -2.17,1.09 h -0.75 c -0.18,0 -0.26,-0.08 -0.26,-0.26 z"
   id="path691910" />
	<path
   class="st0"
   d="m 199.87,89.47 c -0.16,-0.16 -0.21,-0.21 -0.21,-0.31 0,-0.96 0.44,-1.68 1.29,-1.84 2.02,-0.36 3.7,-1.09 3.7,-3.47 0,-1.94 -1.53,-2.74 -4.01,-2.74 -0.65,0 -1.55,0.05 -2.15,0.13 -0.16,0.03 -0.23,0.08 -0.23,0.18 V 95.5 c 0,0.91 -0.44,1.09 -2.17,1.09 h -0.75 c -0.18,0 -0.26,-0.08 -0.26,-0.26 V 79.38 c 0,-0.16 0.1,-0.23 0.26,-0.26 1.14,-0.21 3.72,-0.34 5.12,-0.34 5.33,0 7.4,1.45 7.4,5.02 0,3.1 -2.04,4.45 -4.24,5.04 -0.18,0.05 -0.41,0.13 -0.26,0.31 1.6,1.66 4.58,4.97 6.08,7.04 0.08,0.1 0.1,0.16 0.1,0.18 -0.03,0.1 -1.01,0.31 -2.56,0.31 -0.9,0 -1.21,-0.16 -1.5,-0.54 -1.58,-2.17 -3.75,-4.73 -5.61,-6.67 z"
   id="path691912" />
	<path
   class="st0"
   d="m 217.02,90.22 c 0,-0.47 -0.03,-0.65 -0.36,-1.11 -1.37,-1.89 -4.79,-7.35 -5.92,-9.93 C 210.71,79.1 210.84,79 211,79 h 2.95 c 0.15,0 0.23,0.05 0.26,0.13 1.47,3.13 3.6,6.8 4.06,7.45 0.21,0.28 0.34,0.46 0.52,0.46 0.18,0 0.34,-0.18 0.52,-0.44 1.37,-1.97 3.83,-6.26 4.45,-7.76 h 0.65 c 1.71,0 2.28,0.05 2.28,0.62 0,0.29 -0.21,0.75 -0.78,1.73 -1.32,2.3 -3.47,5.64 -5.38,7.97 -0.28,0.36 -0.31,0.41 -0.31,0.98 v 5.35 c 0,0.91 -0.44,1.09 -2.17,1.09 h -0.75 c -0.18,0 -0.26,-0.08 -0.26,-0.26 v -6.1 z"
   id="path691914" />
</g></g></svg>
