<?xml version="1.0" encoding="UTF-8" standalone="no"?>
<!-- Created with Inkscape (http://www.inkscape.org/) -->

<svg
   width="400mm"
   height="184.81302mm"
   viewBox="0 0 400.00003 184.81302"
   version="1.1"
   id="svg5"
   xml:space="preserve"
   inkscape:version="1.2.2 (732a01da63, 2022-12-09)"
   sodipodi:docname="Aufbau.svg"
   inkscape:export-filename="..\04_Software\UI\imgs\panasinic.svg"
   inkscape:export-xdpi="96"
   inkscape:export-ydpi="96"
   xmlns:inkscape="http://www.inkscape.org/namespaces/inkscape"
   xmlns:sodipodi="http://sodipodi.sourceforge.net/DTD/sodipodi-0.dtd"
   xmlns="http://www.w3.org/2000/svg"
   xmlns:svg="http://www.w3.org/2000/svg"><style
     id="style1425">
.measure-arrow
{
}
.measure-label
{

}
.measure-line
{
}</style><sodipodi:namedview
     id="namedview7"
     pagecolor="#ffffff"
     bordercolor="#000000"
     borderopacity="0.25"
     inkscape:showpageshadow="2"
     inkscape:pageopacity="0.0"
     inkscape:pagecheckerboard="0"
     inkscape:deskcolor="#d1d1d1"
     inkscape:document-units="mm"
     showgrid="false"
     inkscape:zoom="0.14270963"
     inkscape:cx="1674.7293"
     inkscape:cy="-367.87986"
     inkscape:window-width="2400"
     inkscape:window-height="1411"
     inkscape:window-x="2391"
     inkscape:window-y="-9"
     inkscape:window-maximized="1"
     inkscape:current-layer="svg5"
     inkscape:lockguides="true" /><defs
     id="defs2" /><rect
     style="font-variation-settings:'wdth' 75, 'wght' 512;fill:#ffffff;fill-opacity:1;stroke:none;stroke-width:2.3795;stroke-linecap:square;stroke-linejoin:bevel;stroke-dasharray:none;stroke-dashoffset:0;stroke-opacity:1"
     id="rect573821-9"
     width="400"
     height="184.813"
     x="1.1368684e-13"
     y="0"
     ry="26.882967" /><style
     id="style1425-6">
.measure-arrow
{
}
.measure-label
{

}
.measure-line
{
}</style><style
     type="text/css"
     id="style245342">
	.st0{fill:#FFFFFF;}
	.st1{fill:none;}
	.st2{fill:#0062AE;}
	.st3{clip-path:url(#SVGID_00000002358357376170049520000004298317418494047119_);fill:#0062AE;}
	.st4{clip-path:url(#SVGID_00000127028224577092881960000007483239004178551740_);fill:#0062AE;}
	.st5{clip-path:url(#SVGID_00000134212148993211780580000001433661709248891067_);fill:#999999;}
</style><style
     type="text/css"
     id="style288922">
	.st0{fill:#E30613;}
</style><style
     type="text/css"
     id="style317668">
	.st0{fill:#FFFFFF;}
	.st1{fill:#00A587;}
</style><style
     type="text/css"
     id="style325384">
	.st0{fill:#003C62;}
</style><style
     id="style1425-65">
.measure-arrow
{
}
.measure-label
{

}
.measure-line
{
}</style><style
     id="style1425-6-7">
.measure-arrow
{
}
.measure-label
{

}
.measure-line
{
}</style><style
     type="text/css"
     id="style245342-3">
	.st0{fill:#FFFFFF;}
	.st1{fill:none;}
	.st2{fill:#0062AE;}
	.st3{clip-path:url(#SVGID_00000002358357376170049520000004298317418494047119_);fill:#0062AE;}
	.st4{clip-path:url(#SVGID_00000127028224577092881960000007483239004178551740_);fill:#0062AE;}
	.st5{clip-path:url(#SVGID_00000134212148993211780580000001433661709248891067_);fill:#999999;}
</style><style
     type="text/css"
     id="style288922-4">
	.st0{fill:#E30613;}
</style><style
     type="text/css"
     id="style317668-5">
	.st0{fill:#FFFFFF;}
	.st1{fill:#00A587;}
</style><style
     type="text/css"
     id="style325384-3">
	.st0{fill:#003C62;}
</style><style
     id="style1425-9">
.measure-arrow
{
}
.measure-label
{

}
.measure-line
{
}</style><style
     type="text/css"
     id="style245342-7">
	.st0{fill:#FFFFFF;}
	.st1{fill:none;}
	.st2{fill:#0062AE;}
	.st3{clip-path:url(#SVGID_00000002358357376170049520000004298317418494047119_);fill:#0062AE;}
	.st4{clip-path:url(#SVGID_00000127028224577092881960000007483239004178551740_);fill:#0062AE;}
	.st5{clip-path:url(#SVGID_00000134212148993211780580000001433661709248891067_);fill:#999999;}
</style><style
     type="text/css"
     id="style288922-1">
	.st0{fill:#E30613;}
</style><style
     type="text/css"
     id="style317668-3">
	.st0{fill:#FFFFFF;}
	.st1{fill:#00A587;}
</style><style
     type="text/css"
     id="style325384-1">
	.st0{fill:#003C62;}
</style><style
     type="text/css"
     id="style664914">
	.st0{fill:#E30613;}
</style><style
     type="text/css"
     id="style686363">
	.st0{fill:#FFFFFF;}
	.st1{fill:#00A587;}
</style><style
     type="text/css"
     id="style691876">
	.st0{fill:#003C62;}
</style><g
     id="g10"
     transform="matrix(0.06753589,0,0,-0.06753589,24.999989,171.67)"><path
       d="m 4023.39,1140.37 1105.97,918.48 v 287.62 H 3577.26 V 2057.14 H 4668.44 L 3559.56,1136.23 V 851.211 h 1622.87 v 287.299 l -1159.04,1.86"
       style="fill:#7b7979;fill-opacity:1;fill-rule:nonzero;stroke:none"
       id="path12" /><path
       d="m 2762.24,1138.57 v 1207.9 H 2447.71 V 851.211 h 961.69 v 287.359 h -647.16"
       style="fill:#7b7979;fill-opacity:1;fill-rule:nonzero;stroke:none"
       id="path14" /><path
       d="M 2180.47,851.191 H 1847.29 V 2346.47 h 333.18 V 851.191"
       style="fill:#7b7979;fill-opacity:1;fill-rule:nonzero;stroke:none"
       id="path16" /><path
       d="M 104.789,247.672 V 3.96094 H 66.4688 V 247.672 H 0.101563 V 286.5 H 171.543 v -38.828 h -66.754"
       style="fill:#7b7979;fill-opacity:1;fill-rule:nonzero;stroke:none"
       id="path18" /><path
       d="M 426.379,3.96094 V 132.75 H 335.121 V 3.96094 H 296.813 V 286.5 h 38.308 V 171.191 h 91.258 V 286.5 H 465.09 V 3.96094 h -38.711"
       style="fill:#7b7979;fill-opacity:1;fill-rule:nonzero;stroke:none"
       id="path20" /><path
       d="M 612.078,3.96094 V 286.5 H 768.512 V 248.059 H 650.395 v -76.09 H 759.813 V 133.941 H 650.395 V 41.9883 H 768.512 V 3.96094 H 612.078"
       style="fill:#7b7979;fill-opacity:1;fill-rule:nonzero;stroke:none"
       id="path22" /><path
       d="m 1149.77,0 c -50.97,0 -83.75,34.082 -83.75,78.4492 h 38.32 c 0,-25.7578 18.96,-40.0195 45.03,-40.0195 29.62,0 48.59,17.0312 48.59,40.8203 0,18.2305 -10.27,30.121 -24.49,38.441 -11.46,6.739 -30.03,16.641 -64.39,33.668 -22.52,11.102 -38.32,35.672 -38.32,64.2 0,42.793 32.78,73.32 79.4,73.32 48.59,0 82.17,-32.109 82.17,-76.481 h -38.72 c 0,24.961 -18.57,38.832 -43.45,38.832 -22.91,0 -41.48,-13.07 -41.48,-36.449 0,-13.48 7.9,-24.57 21.73,-31.722 22.51,-11.477 43.06,-20.989 61.23,-31.289 28.83,-15.469 44.24,-41.211 44.24,-73.3208 C 1235.88,33.2813 1198.35,0 1149.77,0"
       style="fill:#7b7979;fill-opacity:1;fill-rule:nonzero;stroke:none"
       id="path24" /><path
       d="m 1496.24,208.43 c 0,34.48 -26.07,39.629 -40.69,39.629 h -45.82 v -98.278 h 46.61 c 14.62,0 39.9,5.16 39.9,40.02 z m -38.32,-96.7 h -48.19 V 3.96094 h -38.32 V 286.5 h 84.93 c 65.18,0 77.83,-52.309 77.83,-77.289 V 189.41 c 0,-25.762 -12.65,-77.68 -76.25,-77.68"
       style="fill:#7b7979;fill-opacity:1;fill-rule:nonzero;stroke:none"
       id="path26" /><path
       d="M 1696.07,286.5 V 3.96094 h -38.71 V 286.5 h 38.71"
       style="fill:#7b7979;fill-opacity:1;fill-rule:nonzero;stroke:none"
       id="path28" /><path
       d="m 1977.84,208.43 c 0,34.48 -26.07,39.629 -40.69,39.629 h -45.82 V 157.32 h 46.61 c 14.61,0 39.9,5.141 39.9,39.629 z M 1982.19,3.96094 1928.46,119.27 h -37.13 V 3.96094 h -38.32 V 286.5 h 84.93 c 65.58,0 78.61,-51.91 78.61,-76.879 v -13.082 c 0,-20.609 -9.08,-59.039 -47.4,-72.91 L 2025.64,3.96094 h -43.45"
       style="fill:#7b7979;fill-opacity:1;fill-rule:nonzero;stroke:none"
       id="path30" /><path
       d="M 2200.28,286.5 V 3.96094 h -38.71 V 286.5 h 38.71"
       style="fill:#7b7979;fill-opacity:1;fill-rule:nonzero;stroke:none"
       id="path32" /><path
       d="M 2430.61,247.672 V 3.96094 h -38.32 V 247.672 h -66.37 V 286.5 h 171.44 v -38.828 h -66.75"
       style="fill:#7b7979;fill-opacity:1;fill-rule:nonzero;stroke:none"
       id="path34" /><path
       d="m 2916.94,211.211 c 0,34.469 -29.24,39.629 -42.66,39.629 -14.22,0 -43.85,-5.16 -43.85,-39.629 V 78.8398 c 0,-34.8593 29.63,-40.0195 43.85,-40.0195 13.42,0 42.66,5.1602 42.66,40.0195 z M 2873.88,0.390625 c -63.61,0 -81.38,52.710975 -81.38,78.449175 V 212.012 c 0,24.957 16.19,76.457 81.78,76.457 62.8,0 81.37,-51.5 81.37,-76.867 V 78.4492 c 0,-25.7578 -16.98,-78.058575 -81.77,-78.058575"
       style="fill:#7b7979;fill-opacity:1;fill-rule:nonzero;stroke:none"
       id="path36" /><path
       d="m 3136.6,248.059 v -76.477 h 109.43 V 133.531 H 3136.6 V 3.96094 h -38.31 V 286.5 h 156.44 V 248.059 H 3136.6"
       style="fill:#7b7979;fill-opacity:1;fill-rule:nonzero;stroke:none"
       id="path38" /><path
       d="m 3632.03,0 c -50.97,0 -83.74,34.082 -83.74,78.4492 h 38.31 c 0,-25.7578 18.97,-40.0195 45.04,-40.0195 29.63,0 48.59,17.0312 48.59,40.8203 0,18.2305 -10.27,30.121 -24.5,38.441 -11.46,6.739 -30.01,16.641 -64.38,33.668 -22.52,11.102 -38.32,35.672 -38.32,64.2 0,42.793 32.79,73.32 79.41,73.32 48.58,0 82.16,-32.109 82.16,-76.481 h -38.71 c 0,24.961 -18.58,38.832 -43.45,38.832 -22.93,0 -41.49,-13.07 -41.49,-36.449 0,-13.48 7.9,-24.57 21.72,-31.722 22.54,-11.477 43.06,-20.989 61.24,-31.289 28.82,-15.469 44.24,-41.211 44.24,-73.3208 C 3718.15,33.2813 3680.63,0 3632.03,0"
       style="fill:#7b7979;fill-opacity:1;fill-rule:nonzero;stroke:none"
       id="path40" /><path
       d="m 3934.26,244.879 -33.58,-126 h 65.98 z M 3996.29,3.96094 3976.53,80.8398 H 3891.6 L 3871.46,3.96094 h -39.51 L 3905.42,286.5 h 55.31 L 4035.39,3.96094 h -39.1"
       style="fill:#7b7979;fill-opacity:1;fill-rule:nonzero;stroke:none"
       id="path42" /><path
       d="M 4198.98,248.059 V 171.582 H 4308.4 V 133.531 H 4198.98 V 3.96094 h -38.32 V 286.5 h 156.43 v -38.441 h -118.11"
       style="fill:#7b7979;fill-opacity:1;fill-rule:nonzero;stroke:none"
       id="path44" /><path
       d="M 4448.27,3.96094 V 286.5 h 156.44 v -38.441 h -118.12 v -76.09 h 109.42 V 133.941 H 4486.59 V 41.9883 h 118.12 V 3.96094 h -156.44"
       style="fill:#7b7979;fill-opacity:1;fill-rule:nonzero;stroke:none"
       id="path46" /><path
       d="M 4823.19,247.672 V 3.96094 h -38.32 V 247.672 h -66.36 V 286.5 h 171.45 v -38.828 h -66.77"
       style="fill:#7b7979;fill-opacity:1;fill-rule:nonzero;stroke:none"
       id="path48" /><path
       d="M 5106.86,106.191 V 3.96094 h -38.72 V 106.988 L 4994.28,286.5 h 41.86 l 51.36,-129.59 51.75,129.59 h 41.47 l -73.86,-180.309"
       style="fill:#7b7979;fill-opacity:1;fill-rule:nonzero;stroke:none"
       id="path50" /><path
       d="m 311.383,1680.21 h 813.007 c 210.94,0 235.34,103.81 235.34,181.89 0,84.87 -26.03,197.7 -251.05,197.7 H 311.383 Z m 0,-829.019 H 0 V 2347.3 h 1165.66 c 154.69,0 279.77,-44.07 371.78,-130.98 92.61,-87.51 139.56,-205.34 139.56,-350.25 0,-152.26 -49.14,-270.89 -146.05,-352.62 -95.02,-80.11 -233.13,-120.73 -410.49,-120.73 H 311.383 V 851.191"
       style="fill:#7b7979;fill-opacity:1;fill-rule:nonzero;stroke:none"
       id="path52" /></g></svg>
