<?xml version="1.0" encoding="UTF-8" standalone="no"?>
<!-- Created with Inkscape (http://www.inkscape.org/) -->

<svg
   width="400mm"
   height="184.81302mm"
   viewBox="0 0 400.00003 184.81302"
   version="1.1"
   id="svg5"
   xml:space="preserve"
   inkscape:version="1.2.2 (732a01da63, 2022-12-09)"
   sodipodi:docname="Aufbau.svg"
   inkscape:export-filename="..\04_Software\UI\imgs\Omron.svg"
   inkscape:export-xdpi="96"
   inkscape:export-ydpi="96"
   xmlns:inkscape="http://www.inkscape.org/namespaces/inkscape"
   xmlns:sodipodi="http://sodipodi.sourceforge.net/DTD/sodipodi-0.dtd"
   xmlns="http://www.w3.org/2000/svg"
   xmlns:svg="http://www.w3.org/2000/svg"><style
     id="style1425">
.measure-arrow
{
}
.measure-label
{

}
.measure-line
{
}</style><sodipodi:namedview
     id="namedview7"
     pagecolor="#ffffff"
     bordercolor="#000000"
     borderopacity="0.25"
     inkscape:showpageshadow="2"
     inkscape:pageopacity="0.0"
     inkscape:pagecheckerboard="0"
     inkscape:deskcolor="#d1d1d1"
     inkscape:document-units="mm"
     showgrid="false"
     inkscape:zoom="0.14270963"
     inkscape:cx="1674.7293"
     inkscape:cy="-367.87986"
     inkscape:window-width="2400"
     inkscape:window-height="1411"
     inkscape:window-x="2391"
     inkscape:window-y="-9"
     inkscape:window-maximized="1"
     inkscape:current-layer="svg5"
     inkscape:lockguides="true" /><defs
     id="defs2" /><rect
     style="font-variation-settings:'wdth' 75, 'wght' 512;fill:#ffffff;fill-opacity:1;stroke:none;stroke-width:2.3795;stroke-linecap:square;stroke-linejoin:bevel;stroke-dasharray:none;stroke-dashoffset:0;stroke-opacity:1"
     id="rect573821-9"
     width="400"
     height="184.813"
     x="1.1368684e-13"
     y="0"
     ry="26.882967" /><style
     id="style1425-6">
.measure-arrow
{
}
.measure-label
{

}
.measure-line
{
}</style><style
     type="text/css"
     id="style245342">
	.st0{fill:#FFFFFF;}
	.st1{fill:none;}
	.st2{fill:#0062AE;}
	.st3{clip-path:url(#SVGID_00000002358357376170049520000004298317418494047119_);fill:#0062AE;}
	.st4{clip-path:url(#SVGID_00000127028224577092881960000007483239004178551740_);fill:#0062AE;}
	.st5{clip-path:url(#SVGID_00000134212148993211780580000001433661709248891067_);fill:#999999;}
</style><style
     type="text/css"
     id="style288922">
	.st0{fill:#E30613;}
</style><style
     type="text/css"
     id="style317668">
	.st0{fill:#FFFFFF;}
	.st1{fill:#00A587;}
</style><style
     type="text/css"
     id="style325384">
	.st0{fill:#003C62;}
</style><style
     id="style1425-65">
.measure-arrow
{
}
.measure-label
{

}
.measure-line
{
}</style><style
     id="style1425-6-7">
.measure-arrow
{
}
.measure-label
{

}
.measure-line
{
}</style><style
     type="text/css"
     id="style245342-3">
	.st0{fill:#FFFFFF;}
	.st1{fill:none;}
	.st2{fill:#0062AE;}
	.st3{clip-path:url(#SVGID_00000002358357376170049520000004298317418494047119_);fill:#0062AE;}
	.st4{clip-path:url(#SVGID_00000127028224577092881960000007483239004178551740_);fill:#0062AE;}
	.st5{clip-path:url(#SVGID_00000134212148993211780580000001433661709248891067_);fill:#999999;}
</style><style
     type="text/css"
     id="style288922-4">
	.st0{fill:#E30613;}
</style><style
     type="text/css"
     id="style317668-5">
	.st0{fill:#FFFFFF;}
	.st1{fill:#00A587;}
</style><style
     type="text/css"
     id="style325384-3">
	.st0{fill:#003C62;}
</style><style
     id="style1425-9">
.measure-arrow
{
}
.measure-label
{

}
.measure-line
{
}</style><style
     type="text/css"
     id="style245342-7">
	.st0{fill:#FFFFFF;}
	.st1{fill:none;}
	.st2{fill:#0062AE;}
	.st3{clip-path:url(#SVGID_00000002358357376170049520000004298317418494047119_);fill:#0062AE;}
	.st4{clip-path:url(#SVGID_00000127028224577092881960000007483239004178551740_);fill:#0062AE;}
	.st5{clip-path:url(#SVGID_00000134212148993211780580000001433661709248891067_);fill:#999999;}
</style><style
     type="text/css"
     id="style288922-1">
	.st0{fill:#E30613;}
</style><style
     type="text/css"
     id="style317668-3">
	.st0{fill:#FFFFFF;}
	.st1{fill:#00A587;}
</style><style
     type="text/css"
     id="style325384-1">
	.st0{fill:#003C62;}
</style><style
     type="text/css"
     id="style664914">
	.st0{fill:#E30613;}
</style><style
     type="text/css"
     id="style686363">
	.st0{fill:#FFFFFF;}
	.st1{fill:#00A587;}
</style><g
     id="g686405"
     transform="matrix(1.6839203,0,0,1.6839203,-13.186767,34.717987)">
	<g
   id="g686391">
		<polygon
   points="159.33209,28.8482 159.33209,45.347698 162.68359,45.347698 162.68359,38.362301 169.08699,38.362301 169.08699,35.443401 162.68359,35.443401 162.68359,31.903299 170.0352,31.903299 170.0352,28.8482 "
   id="polygon686365" />
		<path
   d="M 181.8125,38.362301 V 39.75 c 0,0.9981 -0.2812,1.721699 -1.0849,2.314499 -0.668,0.497001 -1.2471,0.5107 -2.0811,0.488201 -0.74611,-0.0234 -1.2343,-0.0654 -1.84859,-0.488201 C 175.95219,41.4902 175.625,40.769501 175.5723,39.75 L 175.501,38.362301 V 28.8482 h -3.331 v 10.601 c 0,0.390701 0.0293,0.612301 0.0957,0.991199 0.4345,2.584 1.8584,4.407299 4.3906,5.0733 0.7715,0.199199 1.2402,0.163101 2.0381,0.161102 0.7529,-0.0019 1.18939,-0.0195 1.9189,-0.207001 2.54789,-0.6641 4.30369,-2.419899 4.48539,-5.046902 l 0.0674,-0.997997 V 28.8482 h -3.35359 z"
   id="path686367" />
		<polygon
   points="215.88379,45.351601 215.88379,28.8482 212.57619,28.8482 212.57619,35.351601 206.5137,35.351601 206.5137,28.8482 203.18359,28.8482 203.18359,45.351601 206.5137,45.351601 206.5137,38.293999 212.57619,38.293999 212.57619,45.351601 "
   id="polygon686369" />
		<path
   d="m 200.96391,38.986301 h -3.24022 v 0.5108 c 0,1.809601 -1.56939,3.333999 -3.3291,3.237301 -2.54399,-0.161103 -3.4209,-1.643601 -3.95219,-3.6348 -0.209,-0.761704 -0.18941,-1.393502 -0.1611,-2.290001 0.0254,-0.9492 0.2314,-1.872601 0.4189,-2.408699 0.59671,-1.711403 1.96679,-2.948301 3.83599,-2.869602 1.23731,0.0561 2.0869,0.549801 2.74901,1.599102 0.29489,0.466797 0.38089,0.791999 0.46289,1.340297 h 3.21582 l -0.0723,-0.412597 c -0.13769,-0.8349 -0.36711,-2.248501 -2.01069,-3.981902 -1.22661,-1.2998 -2.59961,-1.6089 -4.43851,-1.599599 -1.59571,0.0088 -2.56349,0.309999 -3.9297,1.136699 -2.69721,1.623 -3.3798,4.234398 -3.47161,7.286099 -0.11329,4.309601 2.12891,8.843799 6.9384,8.939503 3.375,0.0439 6.34571,-1.930703 6.9366,-5.280301 0.0859,-0.489299 0.10541,-0.778301 0.0712,-1.273403 z"
   id="path686371" />
		<path
   d="m 221.51469,32.855999 c 0.38381,-2.351099 4.87601,-1.945799 5.36422,0.436001 0.0284,0.422901 0.0362,0.492698 0.0362,0.492698 l 3.3017,0.0019 -0.0244,-0.392998 c -0.1474,-2.9605 -2.9677,-4.943401 -6.29981,-4.9151 -2.99609,0 -5.71869,1.939 -5.625,5.289101 0.044,1.847599 1.3067,3.127899 2.8906,3.752899 4.01372,1.6133 5.93072,0.917 6.06651,3.338902 0.0898,1.602497 -1.8555,1.997097 -2.8887,1.9053 -1.40041,-0.122101 -2.65331,-0.522503 -3.08791,-1.861401 -0.0996,-0.3027 -0.13769,-0.488201 -0.13769,-0.807602 v -0.225601 h -3.332 v 0.486401 c 0,3.537101 3.2314,5.4902 6.541,5.412101 3.1806,-0.0772 6.33589,-1.7989 6.2021,-5.307701 -0.25681,-6.736801 -9.6006,-3.9501 -9.00681,-7.6049 z"
   id="path686373" />
		<polygon
   points="115.9517,31.9053 115.9517,28.871099 104.59869,28.871099 104.59869,45.377899 115.9517,45.377899 115.9517,42.345699 107.9502,42.345699 107.9502,38.362301 115.3052,38.362301 115.3052,35.4697 107.9502,35.4697 107.9502,31.9053 "
   id="polygon686375" />
		<polygon
   points="74.079102,31.9053 74.079102,28.871099 62.724197,28.871099 62.724197,45.377899 74.079102,45.377899 74.079102,42.345699 66.077698,42.345699 66.077698,38.362301 73.432701,38.362301 73.432701,35.4697 66.077698,35.4697 66.077698,31.9053 "
   id="polygon686377" />
		<polygon
   points="133.3829,45.347698 144.0752,45.347698 144.0752,42.326199 136.7305,42.326199 136.7305,28.867201 133.3829,28.867201 "
   id="polygon686379" />
		<path
   d="m 84.573799,28.9053 c -0.2574,-0.0449 -0.496605,-0.0449 -0.8116,-0.0449 H 76.207596 V 45.376 h 3.383308 v -5.918998 h 3.844193 l 0.6763,-0.0439 c 2.637199,-0.181602 4.1474,-2.7607 4.190902,-5.194301 0.0439,-2.136799 -1.114799,-4.7559 -3.7285,-5.313501 z m -1.206604,7.609402 -0.578598,0.0459 h -3.197693 v -4.8038 h 3.313393 c 0.183609,0 0.3013,0.0459 0.462898,0.0459 1.159203,0.1187 1.689507,1.271 1.670006,2.416099 -0.02251,1.1074 -0.607002,2.2099 -1.670006,2.295903 z"
   id="path686381" />
		<path
   d="M 98.7398,28.917 C 98.484398,28.8711 98.242699,28.8711 97.931694,28.8711 H 90.393097 V 45.347698 H 93.7686 V 39.4492 h 3.837899 l 0.672302,-0.0478 c 2.633399,-0.1817 4.137299,-2.7549 4.183199,-5.1836 0.0439,-2.128899 -1.1089,-4.7451 -3.7222,-5.3008 z M 97.536697,36.5088 96.958,36.5527 h -3.189399 v -4.788 h 3.3096 c 0.177193,0 0.296799,0.0449 0.458496,0.0449 1.155205,0.1157 1.685502,1.267097 1.666001,2.408199 -0.02,1.1045 -0.6026,2.205101 -1.666001,2.291 z"
   id="path686383" />
		<path
   d="m 130.6563,43.620098 c -0.2441,-1.341797 -0.0938,-2.056599 -0.2793,-3.488296 -0.044,-0.485302 -0.5293,-1.767502 -1.4268,-2.354401 l -0.4668,-0.302799 0.64851,-0.460903 c 0.91399,-0.652398 1.13858,-1.424797 1.40619,-2.515599 0.2256,-0.920898 0.2256,-1.514202 -0.0234,-2.4258 -0.34959,-1.288099 -0.8399,-2.165501 -2.043,-2.746099 -0.7402,-0.354001 -1.2431,-0.441901 -2.063,-0.441901 h -8.2348 v 16.463398 h 3.32129 V 38.9785 h 3.50341 0.48631 c 0.43899,0 0.78219,0.157299 1.03759,0.4366 0.6924,0.738201 0.8081,1.478501 0.8799,2.5634 0.0698,1.107399 -0.006,1.817399 0.32319,2.911202 l 0.1372,0.457996 h 3.1577 L 130.8633,44.7715 Z M 127.30859,34.3115 c -0.11568,1.2002 -0.82999,1.808598 -1.8432,1.870202 l -0.78809,0.0459 h -3.18211 v -4.4317 h 3.57521 0.41451 c 0.94778,0.0918 1.61819,0.366701 1.82368,1.706599 0.022,0.232402 0.022,0.5336 0,0.809001 z"
   id="path686385" />
		<polygon
   points="153.01469,45.349602 153.01469,41.294899 156.83891,41.294899 156.83891,38.358398 153.01469,38.358398 153.01469,34.3545 149.6709,34.3545 149.6709,38.358398 145.84279,38.358398 145.84279,41.294899 149.6709,41.294899 149.6709,45.349602 "
   id="polygon686387" />
		<path
   d="M 57.006905,28.917 C 56.753498,28.8711 56.514198,28.8711 56.1968,28.8711 h -7.536602 v 16.476599 h 3.375 V 39.4473 h 3.836399 l 0.672402,-0.0479 c 2.6333,-0.1816 4.137199,-2.754899 4.185001,-5.1816 0.04591,-2.128899 -1.108803,-4.7451 -3.722095,-5.3008 z m -1.203106,7.589802 -0.578701,0.0459 h -3.1899 v -4.788 h 3.305706 c 0.181595,0 0.301193,0.0449 0.462895,0.0449 1.159107,0.1157 1.6875,1.267097 1.6655,2.408199 -0.0196,1.1045 -0.6021,2.205101 -1.6655,2.289002 z"
   id="path686389" />
	</g>
	<g
   id="g686403">
		<g
   id="g686397">
			<path
   class="st0"
   d="m 31.946798,32.562 h 2.264201 c 0,0 0,-0.620599 0,-1.3974 h 4.917499 v -2.266201 h -4.917499 c 0,-0.4389 0,-0.753398 0,-0.827098 0,-0.522501 0.411102,-0.856902 0.8437,-0.856902 0.989799,0 4.075699,0 4.075699,0 V 24.9492 c 0,0 -3.914097,0 -4.059597,0 -1.851002,0 -3.124003,1.5235 -3.124003,3.1221 v 0.827099 H 28.5415 V 31.1646 h 3.405298 z"
   id="path686393" />
			<path
   class="st1"
   d="m 22.677299,22.677299 v 22.6684 h 22.670399 v -22.6684 z"
   id="path686395" />
		</g>
		<path
   class="st0"
   d="m 28.5415,28.898399 h 3.405298 v -0.827098 c 0,-1.598601 1.273001,-3.122101 3.124003,-3.122101 0.1455,0 4.059597,0 4.059597,0 v 2.265199 c 0,0 -3.0859,0 -4.075699,0 -0.432598,0 -0.843701,0.334401 -0.843701,0.856902 0,0.0737 0,0.388199 0,0.827098 h 4.9175 V 31.1646 h -4.9175 c 0,0.776801 0,1.3974 0,1.3974 h -2.2642 V 31.1646 H 28.5415 Z"
   id="path686399" />
		<path
   class="st0"
   d="M 36.2481,40.285198 H 31.946798 V 36.6367 h 2.2642 v 1.358398 c 0,0 1.829602,0 2.037102,0 0.362805,0 1.110806,-0.241199 1.110806,-1.151298 0,-0.492199 -0.452607,-1.109398 -1.110806,-1.109398 h -5.440401 v 7.347599 H 28.5415 v -9.620602 c 0,0 7.3531,0 7.7066,0 2.028805,0 3.385201,1.610901 3.3769,3.378502 0,1.759701 -1.3125,3.445297 -3.3769,3.445297 z"
   id="path686401" />
	</g>
</g></svg>
