<?xml version="1.0" encoding="UTF-8" standalone="no"?>
<!-- Created with Inkscape (http://www.inkscape.org/) -->

<svg
   width="400mm"
   height="184.813mm"
   viewBox="0 0 400.00003 184.813"
   version="1.1"
   id="svg5"
   xml:space="preserve"
   inkscape:version="1.2.2 (732a01da63, 2022-12-09)"
   sodipodi:docname="Aufbau.svg"
   inkscape:export-filename="..\04_Software\UI\imgs\Pilz.svg"
   inkscape:export-xdpi="96"
   inkscape:export-ydpi="96"
   xmlns:inkscape="http://www.inkscape.org/namespaces/inkscape"
   xmlns:sodipodi="http://sodipodi.sourceforge.net/DTD/sodipodi-0.dtd"
   xmlns="http://www.w3.org/2000/svg"
   xmlns:svg="http://www.w3.org/2000/svg"><style
     id="style1425">
.measure-arrow
{
}
.measure-label
{

}
.measure-line
{
}</style><sodipodi:namedview
     id="namedview7"
     pagecolor="#ffffff"
     bordercolor="#000000"
     borderopacity="0.25"
     inkscape:showpageshadow="2"
     inkscape:pageopacity="0.0"
     inkscape:pagecheckerboard="0"
     inkscape:deskcolor="#d1d1d1"
     inkscape:document-units="mm"
     showgrid="false"
     inkscape:zoom="0.14270963"
     inkscape:cx="1674.7293"
     inkscape:cy="-367.87986"
     inkscape:window-width="2400"
     inkscape:window-height="1411"
     inkscape:window-x="2391"
     inkscape:window-y="-9"
     inkscape:window-maximized="1"
     inkscape:current-layer="svg5"
     inkscape:lockguides="true" /><defs
     id="defs2"><clipPath
       clipPathUnits="userSpaceOnUse"
       id="clipPath702751"><path
         d="M 0,44.04 H 107.747 V 0 H 0 Z"
         id="path702749" /></clipPath></defs><rect
     style="font-variation-settings:'wdth' 75, 'wght' 512;fill:#ffffff;fill-opacity:1;stroke:none;stroke-width:2.3795;stroke-linecap:square;stroke-linejoin:bevel;stroke-dasharray:none;stroke-dashoffset:0;stroke-opacity:1"
     id="rect573821-9"
     width="400"
     height="184.813"
     x="1.1368684e-13"
     y="0"
     ry="26.882967" /><style
     id="style1425-6">
.measure-arrow
{
}
.measure-label
{

}
.measure-line
{
}</style><style
     type="text/css"
     id="style245342">
	.st0{fill:#FFFFFF;}
	.st1{fill:none;}
	.st2{fill:#0062AE;}
	.st3{clip-path:url(#SVGID_00000002358357376170049520000004298317418494047119_);fill:#0062AE;}
	.st4{clip-path:url(#SVGID_00000127028224577092881960000007483239004178551740_);fill:#0062AE;}
	.st5{clip-path:url(#SVGID_00000134212148993211780580000001433661709248891067_);fill:#999999;}
</style><style
     type="text/css"
     id="style288922">
	.st0{fill:#E30613;}
</style><style
     type="text/css"
     id="style317668">
	.st0{fill:#FFFFFF;}
	.st1{fill:#00A587;}
</style><style
     type="text/css"
     id="style325384">
	.st0{fill:#003C62;}
</style><style
     id="style1425-65">
.measure-arrow
{
}
.measure-label
{

}
.measure-line
{
}</style><style
     id="style1425-6-7">
.measure-arrow
{
}
.measure-label
{

}
.measure-line
{
}</style><style
     type="text/css"
     id="style245342-3">
	.st0{fill:#FFFFFF;}
	.st1{fill:none;}
	.st2{fill:#0062AE;}
	.st3{clip-path:url(#SVGID_00000002358357376170049520000004298317418494047119_);fill:#0062AE;}
	.st4{clip-path:url(#SVGID_00000127028224577092881960000007483239004178551740_);fill:#0062AE;}
	.st5{clip-path:url(#SVGID_00000134212148993211780580000001433661709248891067_);fill:#999999;}
</style><style
     type="text/css"
     id="style288922-4">
	.st0{fill:#E30613;}
</style><style
     type="text/css"
     id="style317668-5">
	.st0{fill:#FFFFFF;}
	.st1{fill:#00A587;}
</style><style
     type="text/css"
     id="style325384-3">
	.st0{fill:#003C62;}
</style><style
     id="style1425-9">
.measure-arrow
{
}
.measure-label
{

}
.measure-line
{
}</style><style
     type="text/css"
     id="style245342-7">
	.st0{fill:#FFFFFF;}
	.st1{fill:none;}
	.st2{fill:#0062AE;}
	.st3{clip-path:url(#SVGID_00000002358357376170049520000004298317418494047119_);fill:#0062AE;}
	.st4{clip-path:url(#SVGID_00000127028224577092881960000007483239004178551740_);fill:#0062AE;}
	.st5{clip-path:url(#SVGID_00000134212148993211780580000001433661709248891067_);fill:#999999;}
</style><style
     type="text/css"
     id="style288922-1">
	.st0{fill:#E30613;}
</style><style
     type="text/css"
     id="style317668-3">
	.st0{fill:#FFFFFF;}
	.st1{fill:#00A587;}
</style><style
     type="text/css"
     id="style325384-1">
	.st0{fill:#003C62;}
</style><style
     type="text/css"
     id="style664914">
	.st0{fill:#E30613;}
</style><style
     type="text/css"
     id="style686363">
	.st0{fill:#FFFFFF;}
	.st1{fill:#00A587;}
</style><style
     type="text/css"
     id="style691876">
	.st0{fill:#003C62;}
</style><g
     id="g704185"
     transform="translate(-87.408848,-270.16022)"><g
       id="g702739"
       transform="matrix(3.2483502,0,0,-3.2483498,112.9291,352.18504)"><path
         d="m 0,0 c 0,-4.082 3.5879,-5.841 6.8447,-5.841 3.5733,0 4.8143,0 7.6543,0 4.091,0 7.3,3.799 7.3,7.581 0,4.105 -3.247,7.347 -7.32,7.455 H 7.0562 c -1.9927,0.327 -1.8741,3.199 4e-4,3.467 1.5323,0 13.9384,0 13.9384,0 0,3.197 -2.405,5.718 -5.772,5.718 -3.168,0 -8.1668,0 -8.1668,0 -4.1997,0 -7.09722,-3.627 -7.09722,-7.502 0,-4.028 3.13522,-7.411 7.09722,-7.411 H 14.499 C 16.383,3.097 16.62,0.423 14.499,0 12.509,0 0,0 0,0"
         style="fill:#0d82ca;fill-opacity:1;fill-rule:nonzero;stroke:none"
         id="path702741" /></g><path
       d="m 190.7201,371.15861 h 18.58122 V 292.4771 H 190.7201 Z"
       style="fill:#0d82ca;fill-opacity:1;fill-rule:nonzero;stroke:none;stroke-width:3.24835"
       id="path702743" /><g
       id="g702745"
       transform="matrix(3.2483502,0,0,-3.2483498,112.40885,434.09539)"><g
         id="g702747"
         clip-path="url(#clipPath702751)"><g
           id="g702753"
           transform="translate(55.844,25.499)"><path
             d="m 0,0 c -2.103,-3.983 -6.27,-6.692 -11.051,-6.692 -6.904,0 -12.499,5.649 -12.499,12.619 0,6.969 5.595,12.619 12.499,12.619 4.734,0 8.854,-2.657 10.975,-6.576 L -5.198,9.207 c -1.145,2.111 -3.36,3.519 -5.853,3.519 -3.636,0 -6.679,-2.992 -6.679,-6.799 0,-3.807 3.043,-6.799 6.679,-6.799 2.545,0 4.812,1.465 5.936,3.65 L 0,0"
             style="fill:#0d82ca;fill-opacity:1;fill-rule:nonzero;stroke:none"
             id="path702755" /></g></g></g><g
       id="g702757"
       transform="matrix(3.2483502,0,0,-3.2483498,300.81314,292.4771)"><path
         d="m 0,0 v -24.222 h 5.785 v 9.385 h 2.033 l 6.088,-9.385 h 7.115 L 12.945,-12.264 21.141,0 H 14.027 L 8.014,-9.714 H 5.785 V 0 H 0"
         style="fill:#0d82ca;fill-opacity:1;fill-rule:nonzero;stroke:none"
         id="path702759" /></g><g
       id="g702761"
       transform="matrix(3.2483502,0,0,-3.2483498,112.40885,420.08692)"><path
         d="m 0,0 c 0.074219,-0.2597 0.13671,-0.4707 0.27246,-0.7187 0.17383,-0.2852 0.39697,-0.5449 0.65674,-0.7559 0.4717,-0.3847 1.2266,-0.7929 2.627,-0.7929 1.6723,0 2.6147,0.6933 3.0107,1.2636 0.1611,0.2227 0.4458,0.7442 0.4458,1.4864 0,0.7441 -0.2974,1.4628 -0.9043,1.9218 C 5.7241,2.6875 5.2661,2.8379 4.7949,2.961 4.4731,3.0606 4.1509,3.1348 3.8286,3.2207 3.0977,3.3946 2.7881,3.4199 2.4658,3.668 2.1187,3.9278 2.0576,4.2617 2.0444,4.4102 c 0,0.0996 0.0254,0.3223 0.1861,0.5449 0.0747,0.1113 0.1733,0.1992 0.2851,0.2734 0.3838,0.2344 0.9785,0.2481 1.0655,0.2481 0.5698,0 1.1274,-0.1602 1.437,-0.6817 C 5.043,4.7578 5.1177,4.6328 5.167,4.4981 5.3896,4.5469 5.625,4.5957 5.8359,4.6582 6.1084,4.7325 6.3687,4.8067 6.6294,4.8946 6.6167,4.9551 6.542,5.1914 6.4185,5.4024 6.2446,5.699 5.9727,5.934 5.8853,6.01 5.0059,6.766 3.9404,6.777 3.5562,6.777 1.9824,6.777 1.1523,6.047 0.80518,5.5 0.4585,4.9434 0.43359,4.336 0.43359,4.1016 0.43359,3.8028 0.4707,3.1719 1.0161,2.5645 1.4253,2.1192 1.8213,1.9825 2.0444,1.9082 2.1807,1.8711 2.3169,1.8321 2.4658,1.7832 2.7388,1.6973 3.0234,1.6231 3.3081,1.5489 3.7798,1.4375 4.5225,1.3125 4.9189,1.0528 5.2905,0.8184 5.3525,0.4082 5.3525,0.2598 5.3525,0.1231 5.3281,-0.125 5.1294,-0.3847 5.0181,-0.5078 4.8945,-0.6191 4.7578,-0.6933 4.3364,-0.9297 3.6924,-0.9297 3.5938,-0.9297 2.5034,-0.9297 1.9702,-0.5703 1.71,-0.1484 1.6108,0 1.561,0.1231 1.5117,0.2832 L 0,0"
         style="fill:#657178;fill-opacity:1;fill-rule:nonzero;stroke:none"
         id="path702763" /></g><g
       id="g702765"
       transform="matrix(3.2483502,0,0,-3.2483498,156.83007,417.06691)"><path
         d="m 0,0 c 0,0.4961 -0.012,1.0274 -0.136,1.4981 -0.049,0.1621 -0.148,0.5078 -0.409,0.8789 -0.731,1.0664 -1.821,1.1777 -2.28,1.1777 -1.3254,0 -2.3542,-0.8047 -2.7507,-2.0449 -0.1733,-0.5684 -0.1855,-1.127 -0.1855,-1.336 0,-1.7968 0.7192,-2.5546 1.3999,-2.9511 0.6201,-0.3575 1.2143,-0.3946 1.4873,-0.3946 0.941,0 1.846,0.4082 2.379,1.1758 0.211,0.3106 0.384,0.7324 0.421,0.8184 l -1.325,0.2109 c -0.051,-0.1484 -0.1,-0.2734 -0.186,-0.4082 -0.273,-0.3965 -0.732,-0.6445 -1.203,-0.6445 -0.186,0 -0.495,0.0234 -0.83,0.3203 -0.5324,0.4727 -0.5695,1.1035 -0.5939,1.3281 -0.0132,0.1231 -0.0254,0.2461 -0.0254,0.3574 z m -4.2744,0.9278 c 0.0371,0.3359 0.0625,0.4355 0.1362,0.6074 0.1983,0.5332 0.5832,0.7695 0.7812,0.8672 0.074,0.039 0.272,0.125 0.507,0.125 0.149,0 0.434,-0.0254 0.756,-0.2735 0.471,-0.3457 0.558,-0.7793 0.644,-1.3261 h -2.8244"
         style="fill:#657178;fill-opacity:1;fill-rule:evenodd;stroke:none"
         id="path702767" /></g><g
       id="g702769"
       transform="matrix(3.2483502,0,0,-3.2483498,160.94242,405.96409)"><path
         d="m 0,0 v -6.418 l 1.45,-0.0488 v 3.4199 c 0.037,0.6699 0.087,1.2774 0.656,1.709 0.298,0.248 0.595,0.2851 0.731,0.2851 0.335,0 0.546,-0.1484 0.644,-0.2343 0.385,-0.336 0.385,-0.793 0.397,-1.2891 v -3.8906 h 1.388 v 4.373 C 5.253,-2.0195 5.253,-1.6602 5.179,-1.3731 5.105,-1.0645 4.993,-0.8535 4.944,-0.7559 4.82,-0.5449 4.659,-0.3457 4.473,-0.209 4.299,-0.086 3.916,0.1367 3.321,0.1504 2.305,0.1504 1.834,-0.4824 1.636,-0.8047 1.524,-0.9766 1.4,-1.2129 1.326,-1.3867 V 0 H 0"
         style="fill:#657178;fill-opacity:1;fill-rule:evenodd;stroke:none"
         id="path702771" /></g><g
       id="g702773"
       transform="matrix(3.2483502,0,0,-3.2483498,192.46445,419.03998)"><path
         d="m 0,0 c 0.297,-0.0625 0.583,-0.1367 0.719,-0.3711 0.062,-0.125 0.074,-0.2363 0.074,-0.2988 0,-0.3594 -0.297,-0.5567 -0.396,-0.6075 -0.125,-0.0742 -0.459,-0.1855 -0.893,-0.1855 -0.099,0 -0.743,0.0137 -1.114,0.334 -0.112,0.0996 -0.186,0.1875 -0.323,0.4726 l -1.35,-0.2851 c 0.247,-0.4961 0.384,-0.7188 0.557,-0.9043 0.508,-0.4961 1.45,-0.6953 2.156,-0.6953 0.236,0 1.338,0.0254 2.082,0.5703 0.681,0.5078 0.768,1.2148 0.768,1.5351 0,0.6329 -0.31,1.252 -0.867,1.5743 C 1.239,1.2383 1.09,1.3008 0.694,1.4238 l -1.462,0.2735 c -0.347,0.0859 -0.669,0.1484 -0.83,0.4589 -0.062,0.1114 -0.074,0.2207 -0.074,0.2598 0,0.1367 0.049,0.2598 0.074,0.2969 0.185,0.3223 0.62,0.3711 0.731,0.3847 0.149,0.0254 0.285,0.0254 0.335,0.0254 0.78,0 1.028,-0.4355 1.201,-0.707 L 1.945,2.6875 C 1.722,3.1465 1.636,3.2949 1.462,3.4805 0.992,3.9902 0.149,4.2012 -0.52,4.2012 -1.164,4.2012 -1.896,4.0391 -2.379,3.6289 -2.788,3.2695 -3.048,2.6641 -3.048,2.0937 -3.048,1.2129 -2.503,0.7812 -2.23,0.6191 -1.982,0.457 -1.747,0.3965 -1.474,0.3105 L 0,0"
         style="fill:#657178;fill-opacity:1;fill-rule:nonzero;stroke:none"
         id="path702775" /></g><g
       id="g702777"
       transform="matrix(3.2483502,0,0,-3.2483498,202.22899,415.89944)"><path
         d="m 0,0 c -0.1,-1.7481 0.793,-2.752 1.4,-3.1231 0.607,-0.3847 1.276,-0.4082 1.524,-0.4082 0.458,0 1.536,0.086 2.317,1.1016 0.495,0.6563 0.706,1.4629 0.706,2.2676 0,1.7344 -1.016,3.3574 -2.875,3.3574 C 2.701,3.1953 1.697,3.1094 0.917,2.291 0.099,1.4238 0.013,0.3594 0,0 Z m 1.512,-0.1621 c 0.025,0.5586 0.136,1.3515 0.569,1.7832 0.335,0.3359 0.793,0.373 0.955,0.373 0.433,0 0.718,-0.2109 0.829,-0.3222 0.534,-0.5078 0.546,-1.2891 0.558,-1.5 0.013,-0.1348 0.013,-0.2715 0.013,-0.42 0,-0.2363 0.037,-1.289 -0.682,-1.8476 -0.136,-0.0977 -0.384,-0.2715 -0.805,-0.2715 -1.029,0 -1.326,1.0156 -1.376,1.2754 -0.099,0.3965 -0.074,0.8066 -0.061,0.9297"
         style="fill:#657178;fill-opacity:1;fill-rule:evenodd;stroke:none"
         id="path702779" /></g><g
       id="g702781"
       transform="matrix(3.2483502,0,0,-3.2483498,226.02318,405.96409)"><path
         d="m 0,0 v -6.4668 l 0.52,0.0371 c 0.297,0.0117 0.607,0 0.905,-0.0117 v 2.664 c 0.012,0.2715 -0.05,1.2754 0.619,1.9336 0.36,0.3575 0.694,0.3828 0.905,0.3946 0.111,0.0117 0.222,0.0117 0.334,0.0117 L 3.295,0.1367 C 3.122,0.125 2.726,0.1367 2.317,-0.1094 1.759,-0.4453 1.537,-1.002 1.301,-1.5977 V 0 H 0"
         style="fill:#657178;fill-opacity:1;fill-rule:evenodd;stroke:none"
         id="path702783" /></g><g
       id="g702785"
       transform="matrix(3.2483502,0,0,-3.2483498,251.28558,424.63591)"><path
         d="M 0,0 V -0.6699 H 1.611 V 7.955 H 0.012 V 7.0508 L 0,0"
         style="fill:#657178;fill-opacity:1;fill-rule:nonzero;stroke:none"
         id="path702787" /></g><g
       id="g702789"
       transform="matrix(3.2483502,0,0,-3.2483498,262.3884,405.96409)"><path
         d="m 0,0 v -6.418 l 1.45,-0.0488 v 3.4199 c 0.037,0.6699 0.087,1.2774 0.657,1.709 0.297,0.248 0.594,0.2851 0.73,0.2851 0.335,0 0.546,-0.1484 0.645,-0.2343 0.384,-0.336 0.384,-0.793 0.397,-1.2891 v -3.8906 h 1.387 v 4.373 C 5.254,-2.0195 5.254,-1.6602 5.179,-1.3731 5.106,-1.0645 4.993,-0.8535 4.944,-0.7559 4.82,-0.5449 4.659,-0.3457 4.474,-0.209 4.299,-0.086 3.916,0.1367 3.321,0.1504 2.305,0.1504 1.834,-0.4824 1.636,-0.8047 1.524,-0.9766 1.4,-1.2129 1.326,-1.3867 V 0 H 0"
         style="fill:#657178;fill-opacity:1;fill-rule:evenodd;stroke:none"
         id="path702791" /></g><g
       id="g702793"
       transform="matrix(3.2483502,0,0,-3.2483498,282.72308,405.96409)"><path
         d="m 0,0 v -1.2012 h 0.781 v -3.5683 c 0.062,-0.5079 0.111,-0.9161 0.483,-1.2872 0.36,-0.3847 0.843,-0.4472 1.387,-0.4472 0.297,0 0.596,0.0254 0.893,0.0371 l 0.012,1.1894 C 3.159,-5.3145 2.663,-5.3633 2.391,-5.041 2.28,-4.9063 2.23,-4.7695 2.206,-4.4219 v 3.2344 H 3.482 V 0.0137 H 2.193 V 1.822 L 1.028,1.736 0.867,0 H 0"
         style="fill:#657178;fill-opacity:1;fill-rule:nonzero;stroke:none"
         id="path702795" /></g><g
       id="g702797"
       transform="matrix(3.2483502,0,0,-3.2483498,314.87852,417.06691)"><path
         d="M 0,0 C 0,0.4961 -0.012,1.0274 -0.137,1.4981 -0.186,1.6602 -0.285,2.0059 -0.545,2.377 -1.275,3.4434 -2.367,3.5547 -2.824,3.5547 -4.15,3.5547 -5.18,2.75 -5.576,1.5098 -5.75,0.9414 -5.762,0.3828 -5.762,0.1738 c 0,-1.7968 0.719,-2.5546 1.401,-2.9511 0.619,-0.3575 1.213,-0.3946 1.486,-0.3946 0.941,0 1.846,0.4082 2.379,1.1758 0.211,0.3106 0.385,0.7324 0.422,0.8184 L -1.4,-0.9668 c -0.049,-0.1484 -0.1,-0.2734 -0.186,-0.4082 -0.273,-0.3965 -0.73,-0.6445 -1.201,-0.6445 -0.188,0 -0.496,0.0234 -0.83,0.3203 -0.533,0.4727 -0.572,1.1035 -0.596,1.3281 -0.014,0.1231 -0.025,0.2461 -0.025,0.3574 z m -4.275,0.9278 c 0.037,0.3359 0.062,0.4355 0.136,0.6074 0.2,0.5332 0.582,0.7695 0.782,0.8672 0.074,0.039 0.271,0.125 0.507,0.125 0.149,0 0.434,-0.0254 0.756,-0.2735 0.471,-0.3457 0.557,-0.7793 0.645,-1.3261 h -2.826"
         style="fill:#657178;fill-opacity:1;fill-rule:evenodd;stroke:none"
         id="path702799" /></g><path
       d="m 318.90643,426.93246 h 4.87256 v -28.29604 h -4.87256 z"
       style="fill:#657178;fill-opacity:1;fill-rule:nonzero;stroke:none;stroke-width:3.24835"
       id="path702801" /><path
       d="m 328.82373,426.93246 h 4.87247 v -28.29604 h -4.87247 z"
       style="fill:#657178;fill-opacity:1;fill-rule:nonzero;stroke:none;stroke-width:3.24835"
       id="path702803" /><g
       id="g702805"
       transform="matrix(3.2483502,0,0,-3.2483498,338.65641,405.96409)"><path
         d="M 1.475,0 H 4e-4 V -6.4414 H 1.475 Z M 0,0 Z M 0.039,2.242 V 0.707 H 1.463 V 2.242 H 0.039"
         style="fill:#657178;fill-opacity:1;fill-rule:evenodd;stroke:none"
         id="path702807" /></g><g
       id="g702809"
       transform="matrix(3.2483502,0,0,-3.2483498,367.97609,401.89741)"><path
         d="m 0,0 c -0.842,0.0254 -1.178,-0.0371 -1.498,-0.2714 -0.348,-0.2735 -0.447,-0.584 -0.57,-0.9922 -0.459,0.0996 -0.744,0.1621 -1.229,0.1621 -0.68,0 -1.41,-0.0996 -1.957,-0.4961 -0.459,-0.3477 -0.719,-0.8672 -0.719,-1.4375 0,-0.9043 0.645,-1.3262 0.881,-1.5 -0.347,-0.209 -0.681,-0.4199 -0.881,-0.7676 -0.048,-0.0742 -0.148,-0.2598 -0.148,-0.5078 0,-0.4707 0.262,-0.7559 0.559,-1.0899 -0.497,-0.3105 -0.645,-0.4707 -0.782,-0.7695 -0.111,-0.2344 -0.111,-0.4199 -0.111,-0.5312 0,-0.7813 0.596,-1.1914 0.805,-1.3008 0.248,-0.1367 0.447,-0.1992 0.558,-0.2227 0.309,-0.0742 0.942,-0.1875 1.746,-0.1875 1.203,0 1.86,0.211 2.342,0.4844 0.856,0.4824 0.992,1.1523 0.992,1.5742 0,0.668 -0.422,1.2246 -1.029,1.4981 -0.434,0.1855 -1.078,0.2363 -2.131,0.2597 -0.668,0 -0.904,-0.0117 -1.238,0.1114 -0.373,0.1367 -0.459,0.4101 -0.459,0.582 0,0.2617 0.185,0.4219 0.248,0.4707 0.037,0.0371 0.086,0.0742 0.137,0.125 0.644,-0.1602 0.879,-0.1855 1.25,-0.1855 0.992,0 1.674,0.3964 1.97,0.6308 0.571,0.4707 0.633,1.0781 0.633,1.3516 0,0.5449 -0.224,0.9043 -0.359,1.0527 -0.137,0.1484 -0.236,0.2227 -0.399,0.3457 0.063,0.125 0.125,0.2246 0.225,0.3106 0.271,0.2246 0.793,0.2109 1.164,0.1992 z m -4.918,-7.2734 c 1.004,-0.1855 1.35,-0.1602 2.379,-0.1738 0.557,-0.0117 0.805,-0.0977 1.002,-0.2832 0.162,-0.1621 0.174,-0.3106 0.174,-0.3985 0,-0.3457 -0.297,-0.5937 -0.608,-0.705 -0.382,-0.1368 -0.964,-0.1368 -1.052,-0.1368 -1.09,0 -1.723,0.2246 -2.008,0.6328 -0.049,0.0625 -0.16,0.2481 -0.16,0.4961 0,0.2598 0.099,0.3829 0.273,0.5684 z m 0.445,4.3496 c 0.049,0.3106 0.272,0.9414 1.164,0.9414 0.471,0 0.733,-0.1601 0.856,-0.2715 0.31,-0.2617 0.334,-0.6582 0.334,-0.8066 0,-0.4082 -0.209,-1.0781 -1.178,-1.0781 -0.531,0 -0.99,0.248 -1.138,0.7324 -0.063,0.2109 -0.049,0.3848 -0.038,0.4824"
         style="fill:#657178;fill-opacity:1;fill-rule:evenodd;stroke:none"
         id="path702811" /></g><g
       id="g702813"
       transform="matrix(3.2483502,0,0,-3.2483498,388.79152,417.06691)"><path
         d="m 0,0 c 0,0.4961 -0.014,1.0274 -0.137,1.4981 -0.049,0.1621 -0.148,0.5078 -0.408,0.8789 -0.73,1.0664 -1.822,1.1777 -2.281,1.1777 -1.324,0 -2.354,-0.8047 -2.75,-2.0449 -0.174,-0.5684 -0.186,-1.127 -0.186,-1.336 0,-1.7968 0.719,-2.5546 1.401,-2.9511 0.619,-0.3575 1.215,-0.3946 1.486,-0.3946 0.941,0 1.846,0.4082 2.379,1.1758 0.211,0.3106 0.385,0.7324 0.422,0.8184 L -1.4,-0.9668 c -0.049,-0.1484 -0.1,-0.2734 -0.186,-0.4082 -0.273,-0.3965 -0.73,-0.6445 -1.201,-0.6445 -0.188,0 -0.496,0.0234 -0.83,0.3203 -0.533,0.4727 -0.57,1.1035 -0.596,1.3281 -0.012,0.1231 -0.025,0.2461 -0.025,0.3574 z m -4.275,0.9278 c 0.037,0.3359 0.062,0.4355 0.136,0.6074 0.198,0.5332 0.582,0.7695 0.782,0.8672 0.074,0.039 0.271,0.125 0.507,0.125 0.149,0 0.434,-0.0254 0.756,-0.2735 0.471,-0.3457 0.557,-0.7793 0.645,-1.3261 h -2.826"
         style="fill:#657178;fill-opacity:1;fill-rule:evenodd;stroke:none"
         id="path702815" /></g><g
       id="g702817"
       transform="matrix(3.2483502,0,0,-3.2483498,392.90387,405.96409)"><path
         d="m 0,0 v -6.418 l 1.449,-0.0488 v 3.4199 c 0.037,0.6699 0.088,1.2774 0.656,1.709 0.299,0.248 0.596,0.2851 0.733,0.2851 0.334,0 0.545,-0.1484 0.644,-0.2343 0.383,-0.336 0.383,-0.793 0.395,-1.2891 v -3.8906 h 1.389 v 4.373 C 5.254,-2.0195 5.254,-1.6602 5.178,-1.3731 5.105,-1.0645 4.992,-0.8535 4.943,-0.7559 4.82,-0.5449 4.658,-0.3457 4.473,-0.209 4.299,-0.086 3.916,0.1367 3.32,0.1504 2.305,0.1504 1.834,-0.4824 1.635,-0.8047 1.523,-0.9766 1.4,-1.2129 1.326,-1.3867 V 0 H 0"
         style="fill:#657178;fill-opacity:1;fill-rule:evenodd;stroke:none"
         id="path702819" /></g><g
       id="g702821"
       transform="matrix(3.2483502,0,0,-3.2483498,431.75089,412.88596)"><path
         d="m 0,0 c -0.025,0.125 -0.113,0.5469 -0.297,0.918 -0.596,1.2266 -1.81,1.3379 -2.267,1.3379 -1.252,0 -1.922,-0.7442 -2.182,-1.1152 -0.619,-0.8536 -0.645,-1.8829 -0.645,-2.2305 0,-1.1758 0.397,-1.9336 0.67,-2.3164 0.174,-0.2481 0.334,-0.3965 0.42,-0.4727 0.633,-0.5176 1.414,-0.5683 1.686,-0.5683 0.756,0 1.252,0.2714 1.486,0.4218 0.088,0.0606 0.285,0.211 0.496,0.4571 0.471,0.582 0.57,1.166 0.619,1.4375 l -1.152,0.1113 C -1.338,-2.4277 -1.5,-2.7871 -1.871,-3.0351 -2.119,-3.1972 -2.355,-3.209 -2.492,-3.209 c -0.408,0 -0.668,0.1739 -0.779,0.2735 -0.471,0.3847 -0.594,1.1269 -0.594,1.7226 0,0.8672 0.148,1.3379 0.345,1.6602 0.334,0.5078 0.768,0.582 1.016,0.582 0.236,0 0.77,-0.0742 1.066,-0.6562 0.086,-0.1739 0.137,-0.3614 0.174,-0.5586 L 0,0"
         style="fill:#657178;fill-opacity:1;fill-rule:nonzero;stroke:none"
         id="path702823" /></g><g
       id="g702825"
       transform="matrix(3.2483502,0,0,-3.2483498,452.94311,417.06691)"><path
         d="m 0,0 c 0,0.4961 -0.012,1.0274 -0.135,1.4981 -0.051,0.1621 -0.151,0.5078 -0.41,0.8789 -0.731,1.0664 -1.821,1.1777 -2.28,1.1777 -1.326,0 -2.354,-0.8047 -2.75,-2.0449 -0.174,-0.5684 -0.186,-1.127 -0.186,-1.336 0,-1.7968 0.717,-2.5546 1.399,-2.9511 0.619,-0.3575 1.215,-0.3946 1.487,-0.3946 0.943,0 1.847,0.4082 2.378,1.1758 0.211,0.3106 0.385,0.7324 0.422,0.8184 l -1.326,0.2109 c -0.049,-0.1484 -0.098,-0.2734 -0.185,-0.4082 -0.272,-0.3965 -0.731,-0.6445 -1.202,-0.6445 -0.185,0 -0.496,0.0234 -0.83,0.3203 -0.533,0.4727 -0.57,1.1035 -0.595,1.3281 -0.012,0.1231 -0.024,0.2461 -0.024,0.3574 z m -4.274,0.9278 c 0.037,0.3359 0.061,0.4355 0.137,0.6074 0.197,0.5332 0.582,0.7695 0.779,0.8672 0.074,0.039 0.274,0.125 0.508,0.125 0.148,0 0.434,-0.0254 0.756,-0.2735 0.47,-0.3457 0.558,-0.7793 0.644,-1.3261 h -2.824"
         style="fill:#657178;fill-opacity:1;fill-rule:evenodd;stroke:none"
         id="path702827" /></g><path
       d="m 457.25693,426.88799 h 5.15192 v -5.39262 h -5.15192 z"
       style="fill:#657178;fill-opacity:1;fill-rule:nonzero;stroke:none;stroke-width:3.24835"
       id="path702829" /></g></svg>
