<?xml version="1.0" encoding="UTF-8" standalone="no"?>
<!-- Created with Inkscape (http://www.inkscape.org/) -->

<svg
   width="400mm"
   height="184.813mm"
   viewBox="0 0 400.00003 184.813"
   version="1.1"
   id="svg5"
   xml:space="preserve"
   inkscape:version="1.2.2 (732a01da63, 2022-12-09)"
   sodipodi:docname="ue.svg"
   inkscape:export-filename="..\04_Software\UI\imgs\Leuze.svg"
   inkscape:export-xdpi="96"
   inkscape:export-ydpi="96"
   xmlns:inkscape="http://www.inkscape.org/namespaces/inkscape"
   xmlns:sodipodi="http://sodipodi.sourceforge.net/DTD/sodipodi-0.dtd"
   xmlns="http://www.w3.org/2000/svg"
   xmlns:svg="http://www.w3.org/2000/svg"><style
     id="style1425">
.measure-arrow
{
}
.measure-label
{

}
.measure-line
{
}</style><sodipodi:namedview
     id="namedview7"
     pagecolor="#ffffff"
     bordercolor="#000000"
     borderopacity="0.25"
     inkscape:showpageshadow="2"
     inkscape:pageopacity="0.0"
     inkscape:pagecheckerboard="0"
     inkscape:deskcolor="#d1d1d1"
     inkscape:document-units="mm"
     showgrid="false"
     inkscape:zoom="0.5"
     inkscape:cx="1114"
     inkscape:cy="490"
     inkscape:window-width="1920"
     inkscape:window-height="1129"
     inkscape:window-x="3832"
     inkscape:window-y="-8"
     inkscape:window-maximized="1"
     inkscape:current-layer="svg5"
     inkscape:lockguides="true"><inkscape:page
       x="0"
       y="0"
       width="400.00003"
       height="184.81299"
       id="page285" /><inkscape:page
       x="410.00003"
       y="0"
       width="400.00064"
       height="300.00009"
       id="page287" /></sodipodi:namedview><defs
     id="defs2"><clipPath
       clipPathUnits="userSpaceOnUse"
       id="clipPath670354"><path
         d="M 0,850.394 H 1133.858 V 0 H 0 Z"
         id="path670352" /></clipPath><clipPath
       clipPathUnits="userSpaceOnUse"
       id="clipPath231"><path
         d="M 0,850.394 H 1133.858 V 0 H 0 Z"
         id="path229" /></clipPath></defs><rect
     style="font-variation-settings:'wdth' 75, 'wght' 512;fill:#ffffff;fill-opacity:1;stroke:none;stroke-width:2.3795;stroke-linecap:square;stroke-linejoin:bevel;stroke-dasharray:none;stroke-dashoffset:0;stroke-opacity:1"
     id="rect573821-9"
     width="400"
     height="184.813"
     x="1.1368684e-13"
     y="0"
     ry="26.882967" /><style
     id="style1425-6">
.measure-arrow
{
}
.measure-label
{

}
.measure-line
{
}</style><style
     type="text/css"
     id="style245342">
	.st0{fill:#FFFFFF;}
	.st1{fill:none;}
	.st2{fill:#0062AE;}
	.st3{clip-path:url(#SVGID_00000002358357376170049520000004298317418494047119_);fill:#0062AE;}
	.st4{clip-path:url(#SVGID_00000127028224577092881960000007483239004178551740_);fill:#0062AE;}
	.st5{clip-path:url(#SVGID_00000134212148993211780580000001433661709248891067_);fill:#999999;}
</style><style
     type="text/css"
     id="style288922">
	.st0{fill:#E30613;}
</style><style
     type="text/css"
     id="style317668">
	.st0{fill:#FFFFFF;}
	.st1{fill:#00A587;}
</style><style
     type="text/css"
     id="style325384">
	.st0{fill:#003C62;}
</style><style
     id="style1425-65">
.measure-arrow
{
}
.measure-label
{

}
.measure-line
{
}</style><style
     id="style1425-6-7">
.measure-arrow
{
}
.measure-label
{

}
.measure-line
{
}</style><style
     type="text/css"
     id="style245342-3">
	.st0{fill:#FFFFFF;}
	.st1{fill:none;}
	.st2{fill:#0062AE;}
	.st3{clip-path:url(#SVGID_00000002358357376170049520000004298317418494047119_);fill:#0062AE;}
	.st4{clip-path:url(#SVGID_00000127028224577092881960000007483239004178551740_);fill:#0062AE;}
	.st5{clip-path:url(#SVGID_00000134212148993211780580000001433661709248891067_);fill:#999999;}
</style><style
     type="text/css"
     id="style288922-4">
	.st0{fill:#E30613;}
</style><style
     type="text/css"
     id="style317668-5">
	.st0{fill:#FFFFFF;}
	.st1{fill:#00A587;}
</style><style
     type="text/css"
     id="style325384-3">
	.st0{fill:#003C62;}
</style><style
     id="style1425-9">
.measure-arrow
{
}
.measure-label
{

}
.measure-line
{
}</style><style
     type="text/css"
     id="style245342-7">
	.st0{fill:#FFFFFF;}
	.st1{fill:none;}
	.st2{fill:#0062AE;}
	.st3{clip-path:url(#SVGID_00000002358357376170049520000004298317418494047119_);fill:#0062AE;}
	.st4{clip-path:url(#SVGID_00000127028224577092881960000007483239004178551740_);fill:#0062AE;}
	.st5{clip-path:url(#SVGID_00000134212148993211780580000001433661709248891067_);fill:#999999;}
</style><style
     type="text/css"
     id="style288922-1">
	.st0{fill:#E30613;}
</style><style
     type="text/css"
     id="style317668-3">
	.st0{fill:#FFFFFF;}
	.st1{fill:#00A587;}
</style><style
     type="text/css"
     id="style325384-1">
	.st0{fill:#003C62;}
</style><style
     type="text/css"
     id="style664914">
	.st0{fill:#E30613;}
</style><g
     id="g670348"
     transform="matrix(0.18627324,0,0,-0.18627322,94.396328,171.60929)"><g
       id="g670350"
       clip-path="url(#clipPath670354)"><g
         id="g670356"
         transform="translate(994.1914,24.0459)"><path
           d="m 0,0 c -4.721,-4.718 -11.17,-6.973 -19.434,-6.973 h -0.109 c -8.268,0 -14.709,2.255 -19.43,6.973 -4.834,4.727 -7.195,11.176 -7.195,19.332 0,8.158 2.361,14.707 7.195,19.331 4.721,4.721 11.272,7.084 19.43,7.084 h 0.109 C -11.17,45.747 -4.721,43.492 0,38.768 4.725,34.039 7.092,27.599 7.092,19.332 7.092,11.176 4.725,4.727 0,0 M 16.539,50.898 C 7.518,58.845 -4.4,62.717 -19.434,62.717 h -0.109 c -15.029,0 -26.951,-3.872 -35.969,-11.819 -8.914,-7.833 -13.422,-18.362 -13.422,-31.566 0,-13.207 4.508,-23.728 13.422,-31.569 9.018,-7.842 20.94,-11.809 35.969,-11.809 h 0.109 c 15.034,0 26.952,3.967 35.973,11.809 8.912,7.841 13.316,18.362 13.316,31.569 0,13.204 -4.404,23.733 -13.316,31.566"
           style="fill:#231f20;fill-opacity:1;fill-rule:nonzero;stroke:none"
           id="path670358" /></g><g
         id="g670360"
         transform="translate(716.9414,30.7051)"><path
           d="m 0,0 h 21.152 v -0.748 c 0,-4.615 2.039,-8.164 6.121,-10.629 4.081,-2.468 10.096,-3.653 17.825,-3.653 6.017,0 10.74,0.862 13.963,2.681 3.324,1.721 4.935,4.191 4.935,7.411 0,2.792 -1.068,4.726 -3.221,6.013 -2.15,1.29 -6.443,2.257 -12.996,2.9 L 33.178,5.479 c -10.737,1.07 -18.573,3.543 -23.621,7.302 -5.049,3.758 -7.516,9.02 -7.516,15.892 0,8.052 3.65,14.71 10.846,19.759 7.302,5.151 16.857,7.626 28.884,7.626 12.881,0 22.868,-2.37 30.174,-7.198 7.301,-4.726 10.844,-11.273 10.844,-19.65 v -0.646 h -20.51 c -0.429,4.08 -2.361,7.199 -5.689,9.234 -3.442,2.046 -8.16,3.119 -14.498,3.119 -5.801,0 -10.307,-0.862 -13.533,-2.577 -3.112,-1.615 -4.719,-3.975 -4.719,-6.986 0,-2.361 0.857,-4.184 2.783,-5.257 1.936,-1.071 6.447,-2.039 13.857,-2.902 l 15.358,-1.61 c 10.521,-1.177 18.254,-3.648 23.189,-7.625 5.049,-3.862 7.522,-9.443 7.522,-16.537 0,-9.236 -3.76,-16.215 -11.17,-20.936 -7.518,-4.833 -18.365,-7.192 -32.752,-7.192 -13.635,0 -24.162,2.578 -31.566,7.511 C 3.758,-18.143 0,-10.95 0,-1.715 Z"
           style="fill:#231f20;fill-opacity:1;fill-rule:nonzero;stroke:none"
           id="path670362" /></g><path
         d="m 818.734,84.61 h 20.617 V 2.145 h -20.617 z"
         style="fill:#231f20;fill-opacity:1;fill-rule:nonzero;stroke:none"
         id="path670364" /><g
         id="g670366"
         transform="translate(858.1445,2.1456)"><path
           d="M 0,0 V 82.465 H 20.615 V 17.396 H 63.033 V 0 Z"
           style="fill:#231f20;fill-opacity:1;fill-rule:nonzero;stroke:none"
           id="path670368" /></g><g
         id="g670370"
         transform="translate(683.0078,47.3526)"><path
           d="m 0,0 c -2.791,-1.823 -7.729,-2.688 -14.602,-2.688 h -0.111 -18.896 v 23.087 h 18.896 1.399 C -6.441,20.399 -1.93,19.54 0.537,17.82 2.898,16.106 4.186,13.098 4.186,8.802 4.186,4.723 2.793,1.714 0,0 m 16.967,29.848 c -5.371,4.942 -12.781,7.41 -22.446,7.41 h -9.234 -39.514 v -82.465 h 20.618 v 26.413 h 18.896 9.234 c 9.665,0 17.075,2.47 22.446,7.41 5.367,4.944 8.054,11.809 8.054,20.613 0,8.702 -2.687,15.681 -8.054,20.619"
           style="fill:#231f20;fill-opacity:1;fill-rule:nonzero;stroke:none"
           id="path670372" /></g><path
         d="m 485.432,41.874 h 39.73 V 23.938 h -39.73 z"
         style="fill:#231f20;fill-opacity:1;fill-rule:nonzero;stroke:none"
         id="path670374" /><g
         id="g670376"
         transform="translate(542.2344,2.1456)"><path
           d="M 0,0 V 82.465 H 73.129 V 65.819 H 20.621 V 51.86 H 67.324 V 35.108 H 20.621 V 17.396 H 73.129 V 0 Z"
           style="fill:#231f20;fill-opacity:1;fill-rule:nonzero;stroke:none"
           id="path670378" /></g><g
         id="g670380"
         transform="translate(439.5801,24.0459)"><path
           d="m 0,0 c -4.727,-4.718 -11.273,-6.973 -19.434,-6.973 h -0.113 c -8.265,0 -14.709,2.255 -19.541,6.973 -4.723,4.727 -7.088,11.176 -7.088,19.332 0,8.158 2.365,14.707 7.194,19.331 4.726,4.721 11.275,7.084 19.435,7.084 h 0.113 C -11.273,45.747 -4.727,43.492 0,38.768 4.723,34.039 7.086,27.599 7.086,19.332 7.086,11.176 4.723,4.727 0,0 M 16.43,50.898 C 7.518,58.845 -4.4,62.717 -19.434,62.717 h -0.113 c -15.027,0 -26.949,-3.872 -35.969,-11.819 -8.912,-7.833 -13.423,-18.362 -13.423,-31.566 0,-13.207 4.511,-23.728 13.423,-31.569 9.02,-7.842 20.942,-11.809 35.969,-11.809 h 0.113 c 15.034,0 26.952,3.967 35.864,11.809 9.017,7.841 13.418,18.362 13.418,31.569 0,13.204 -4.401,23.733 -13.418,31.566"
           style="fill:#231f20;fill-opacity:1;fill-rule:nonzero;stroke:none"
           id="path670382" /></g><g
         id="g670384"
         transform="translate(5.8774,2.1456)"><path
           d="M 0,0 V 82.465 H 26.734 L 53.26,23.41 80.641,82.465 h 26.414 V 0 H 87.194 V 55.085 L 61.636,0 H 44.456 L 19.862,55.939 V 0 Z"
           style="fill:#231f20;fill-opacity:1;fill-rule:nonzero;stroke:none"
           id="path670386" /></g><g
         id="g670388"
         transform="translate(334.4551,51.7549)"><path
           d="m 0,0 c -2.473,-1.503 -6.875,-2.257 -12.994,-2.257 h -3.328 -20.076 v 18.686 h 20.076 2.472 c 7.086,0 11.809,-0.646 14.063,-2.044 C 2.578,13.098 3.76,10.736 3.76,7.41 3.76,3.977 2.471,1.503 0,0 m 22.334,-29.962 c 0,0.968 0,1.715 -0.105,2.253 -0.215,5.697 -1.075,9.671 -2.577,11.923 -1.4,2.253 -3.976,4.08 -7.627,5.583 4.297,1.722 7.627,4.402 10.094,8.057 2.365,3.755 3.652,7.947 3.652,12.78 0,7.617 -2.687,13.204 -7.839,16.853 -5.262,3.544 -13.317,5.368 -24.268,5.368 h -9.986 -40.694 v -82.464 h 20.618 v 30.388 h 20.076 3.328 0.431 c 5.688,0 9.555,-1.184 11.491,-3.438 1.929,-2.362 2.896,-7.303 2.896,-14.924 v -5.585 c 0,-1.185 0.217,-2.36 0.432,-3.435 0.322,-1.078 0.752,-2.039 1.289,-3.006 h 23.189 c -2.464,2.902 -3.97,9.342 -4.4,19.647"
           style="fill:#231f20;fill-opacity:1;fill-rule:nonzero;stroke:none"
           id="path670390" /></g><path
         d="m 131.727,84.61 h 20.615 V 2.145 h -20.615 z"
         style="fill:#231f20;fill-opacity:1;fill-rule:nonzero;stroke:none"
         id="path670392" /><g
         id="g670394"
         transform="translate(263.5879,34.1416)"><path
           d="m 0,0 c -1.073,-10.306 -6.017,-18.576 -14.604,-24.803 -8.591,-6.225 -19.541,-9.339 -32.861,-9.339 -15.029,0 -27.056,3.967 -36.08,11.809 -8.908,7.842 -13.419,18.362 -13.419,31.569 0,13.204 4.511,23.734 13.419,31.567 9.024,7.946 21.051,11.818 36.08,11.818 13.105,0 24.053,-2.905 32.646,-8.805 8.592,-6.013 13.425,-13.746 14.498,-23.409 h -22.55 c -1.398,5.041 -4.08,8.91 -8.272,11.489 -4.185,2.577 -9.554,3.755 -16.322,3.755 -8.266,0 -14.813,-2.363 -19.541,-7.084 -4.833,-4.624 -7.194,-11.172 -7.194,-19.331 0,-8.156 2.361,-14.605 7.088,-19.332 4.834,-4.717 11.276,-6.972 19.647,-6.972 7.199,0 12.889,1.501 17.29,4.506 4.403,3.008 6.873,7.193 7.514,12.562 z"
           style="fill:#231f20;fill-opacity:1;fill-rule:nonzero;stroke:none"
           id="path670396" /></g><g
         id="g670398"
         transform="translate(669.5918,367.3701)"><path
           d="m 0,0 h -36.012 v -56.269 c 0,-2.959 -0.006,-5.952 -0.006,-8.808 0,-37.271 -15.81,-54.474 -35.304,-54.474 -19.5,0 -30.91,20.591 -30.91,57.86 0,0.052 -0.004,0.104 -0.004,0.158 0,0.136 0.011,0.267 0.004,0.402 0,122.309 -0.426,244.829 0,367.244 h -73.446 c -0.107,-95.889 0,-174.707 0,-276.719 v -50.989 c 0,-60.037 -50.176,-102.357 -109.951,-102.357 -58.25,0 -105.729,40.202 -108.109,97.817 h -0.218 c -0.156,16.104 -0.022,51.529 -0.022,68.955 0,87.619 0.106,175.453 0.106,263.293 h -74.84 l 0.103,-475.263 c -0.103,-27.245 -4.354,-50.001 1.442,-78.035 1.657,-7.516 7.471,-14.418 12.735,-16.892 5.709,-2.035 11.38,-0.103 15.572,3.329 16.853,18.146 19.972,43.385 19.972,66.9 -1.079,25.983 -8.056,46.388 -16.644,70.226 -10.849,35.325 -5.368,19.226 -5.696,54.545 11.387,-16.529 25.238,-33.175 40.697,-47.24 12.675,-9.883 28.133,-19.653 44.67,-28.03 35.545,-15.998 70.759,-16.533 105.767,-10.203 20.299,3.978 41.881,12.353 58.524,23.303 25.726,19.239 44.279,54.44 49.341,70.977 3.946,-65.36 33.999,-95.71 70.907,-95.71 37.068,0 71.343,32.607 71.343,96.581 C 0.021,-59.205 0,0 0,0"
           style="fill:#ed1c24;fill-opacity:1;fill-rule:nonzero;stroke:none"
           id="path670400" /></g><g
         id="g670402"
         transform="translate(1119.6543,430.0928)"><path
           d="m 0,0 c 0.301,1.157 0.617,2.311 0.9,3.47 4.912,19.055 7.426,38.453 7.426,58.118 0,197.794 -251.199,358.713 -559.967,358.713 -148.254,0 -288.294,-36.884 -394.329,-103.856 -51.937,-32.803 -92.857,-71.037 -121.622,-113.634 -30.258,-44.813 -45.599,-92.327 -45.599,-141.223 0,-48.893 15.357,-96.18 45.645,-140.543 26.649,-39.036 63.804,-74.267 110.526,-104.872 v 38.515 c -80.509,58.128 -124.425,130.686 -124.425,206.9 0,84.955 54.132,165.932 152.428,228.017 101.025,63.808 235.046,98.95 377.376,98.95 142.229,0 275.961,-35.135 376.563,-98.935 97.801,-62.02 151.656,-143.002 151.656,-228.032 0,-52.86 -20.994,-108.629 -58.139,-154.29 -10.712,-12.037 -21.476,-22.611 -31.003,-32.094 -24.807,-24.267 -52.186,-39.728 -84.834,-50.362 -16.526,-5.829 -44.211,-7.5 -59.532,-7.5 -61.039,0 -111.17,45.239 -111.17,101.262 0,56.027 49.7,102.062 111.01,102.062 10.977,0 21.428,-1.5 31.442,-4.244 -0.11,12.091 0,31.098 0,46.848 -9.926,-2.947 -21.198,-4.566 -32.327,-4.566 -52.609,0 -95.254,35.809 -95.254,79.981 0,44.171 42.645,79.978 95.254,79.978 24.75,0 47.295,-7.931 64.231,-20.924 v 48.35 c -78.172,17.074 -182.975,3.76 -220.557,-77.311 -4.297,-11.275 -6.553,-23.947 -6.553,-39.945 -0.105,-10.417 2.364,-19.436 5.69,-29.101 4.943,-15.997 17.074,-30.175 30.07,-39.839 15.787,-9.875 25.237,-14.494 36.832,-18.684 l 10.842,-3.865 -9.451,-3.865 c -23.514,-9.451 -38.869,-22.653 -55.191,-38.119 -13.854,-16.54 -20.616,-27.061 -25.338,-36.297 -7.731,-17.073 -11.491,-33.931 -11.491,-51.857 0.963,-14.068 3.76,-27.175 8.586,-41.664 3.76,-10.203 8.916,-20.406 16.004,-30.929 16.75,-22.982 29.742,-31.359 56.477,-45.529 27.494,-12.133 55.09,-15.027 82.576,-15.573 20.621,0 43.275,3.76 63.248,9.235 25.99,7.623 43.271,14.932 70.012,28.454 28.67,16.541 51.756,36.083 73.552,61.534 31.059,37.016 55.762,80.075 68.028,125.704 C -0.266,-1.044 -0.143,-0.521 0,0"
           style="fill:#ed1c24;fill-opacity:1;fill-rule:nonzero;stroke:none"
           id="path670404" /></g></g></g><g
     id="g221"
     transform="matrix(0.17931667,0,0,-0.18613412,287.60952,171.19858)"><path
       d="M 0,0 V 82.465 H 25.342 L 66.572,24.372 V 82.465 H 86.443 V 0 H 61.316 L 19.758,58.735 V 0 Z"
       style="fill:#231f20;fill-opacity:1;fill-rule:nonzero;stroke:none"
       id="path223" /></g></svg>
